<svg xmlns="http://www.w3.org/2000/svg" width="154" height="33" viewBox="0 0 154 33" fill="none"><path d="M61.7077 18.7084L59.0306 11.7019C58.9214 11.4154 58.5039 11.4154 58.3944 11.7019L55.7178 18.7088C55.6988 18.7586 55.6925 18.8122 55.6994 18.8649C55.7063 18.9176 55.7262 18.9678 55.7575 19.0114C55.7887 19.055 55.8304 19.0906 55.8789 19.1152C55.9274 19.1398 55.9813 19.1526 56.036 19.1526H61.3895C61.4442 19.1526 61.4981 19.1398 61.5466 19.1151C61.5951 19.0905 61.6368 19.0549 61.668 19.0113C61.6992 18.9677 61.7191 18.9174 61.726 18.8647C61.7329 18.812 61.7266 18.7584 61.7075 18.7086L61.7077 18.7084ZM62.9444 22.6466H54.4813C54.4121 22.6466 54.3445 22.6672 54.2877 22.7056C54.2308 22.744 54.1874 22.7983 54.1633 22.8614L52.4972 27.221C52.4731 27.284 52.4297 27.3384 52.3729 27.3767C52.316 27.4151 52.2484 27.4357 52.1792 27.4357H48.511C48.4556 27.4357 48.401 27.4225 48.352 27.3973C48.303 27.372 48.2612 27.3355 48.2301 27.2909C48.199 27.2463 48.1797 27.195 48.1738 27.1415C48.1679 27.0879 48.1756 27.0338 48.1962 26.9838L56.6414 6.55777C56.6667 6.49676 56.7102 6.4445 56.7664 6.40771C56.8225 6.37093 56.8887 6.3513 56.9565 6.35137H60.4688C60.6072 6.35137 60.7318 6.43305 60.7836 6.55777L69.2286 26.9836C69.2493 27.0336 69.2571 27.0878 69.2512 27.1414C69.2454 27.195 69.2261 27.2463 69.195 27.291C69.1639 27.3356 69.122 27.3722 69.073 27.3975C69.024 27.4228 68.9693 27.436 68.9138 27.4359H65.2463C65.177 27.4359 65.1094 27.4153 65.0526 27.3769C64.9957 27.3384 64.9524 27.284 64.9283 27.221L63.2619 22.8614C63.2378 22.7983 63.1945 22.744 63.1376 22.7056C63.0808 22.6672 63.0132 22.6466 62.944 22.6466H62.9444ZM70.9472 13.5199H74.0846C74.1746 13.5199 74.2608 13.5546 74.3245 13.6163C74.3881 13.6781 74.4238 13.7619 74.4238 13.8492V27.1064C74.4238 27.1937 74.3881 27.2775 74.3245 27.3393C74.2608 27.401 74.1746 27.4357 74.0846 27.4357H70.9472C70.8573 27.4357 70.771 27.401 70.7073 27.3393C70.6437 27.2775 70.608 27.1937 70.608 27.1064V13.849C70.608 13.7617 70.6437 13.6779 70.7073 13.6161C70.771 13.5544 70.8573 13.5197 70.9472 13.5197V13.5199ZM85.8659 16.7447C85.8659 16.832 85.8302 16.9158 85.7666 16.9776C85.703 17.0393 85.6167 17.074 85.5267 17.074H85.4317C83.8805 17.074 82.7426 17.4355 82.0189 18.1583C81.2947 18.8812 80.9333 20.0762 80.9333 21.7428V27.1064C80.9333 27.1937 80.8976 27.2775 80.8339 27.3393C80.7703 27.401 80.684 27.4357 80.5941 27.4357H77.4875C77.3975 27.4357 77.3112 27.401 77.2476 27.3393C77.184 27.2775 77.1482 27.1937 77.1482 27.1064V13.849C77.1482 13.7617 77.184 13.6779 77.2476 13.6161C77.3112 13.5544 77.3975 13.5197 77.4875 13.5197H80.5628C80.6528 13.5197 80.7391 13.5544 80.8027 13.6161C80.8663 13.6779 80.9021 13.7617 80.9021 13.849V16.4713H80.9643C81.3365 15.387 81.9259 14.5541 82.7329 13.9713C83.5392 13.3892 84.532 13.0978 85.7108 13.0978H85.8659V16.7444V16.7447ZM94.4444 16.6221C94.3544 16.6221 94.2681 16.6568 94.2045 16.7186C94.1409 16.7804 94.1051 16.8642 94.1051 16.9515V22.4657C94.1051 23.028 94.2182 23.4297 94.4462 23.6705C94.6735 23.9114 95.0665 24.032 95.6249 24.032H95.9373C96.0272 24.032 96.1135 24.0667 96.1772 24.1284C96.2408 24.1902 96.2765 24.274 96.2765 24.3613V27.1362C96.2765 27.2236 96.2408 27.3074 96.1772 27.3691C96.1135 27.4309 96.0272 27.4656 95.9373 27.4656H94.6011C93.2154 27.4656 92.1504 27.1193 91.4058 26.4265C90.6611 25.7337 90.2888 24.705 90.2888 23.3392V16.9515C90.2888 16.8642 90.2531 16.7804 90.1895 16.7186C90.1258 16.6568 90.0395 16.6221 89.9496 16.6221H87.9912C87.9012 16.6221 87.8149 16.5874 87.7513 16.5257C87.6877 16.4639 87.652 16.3801 87.652 16.2928V13.849C87.652 13.7617 87.6877 13.6779 87.7513 13.6161C87.8149 13.5544 87.9012 13.5197 87.9912 13.5197H89.9498C90.0398 13.5197 90.1261 13.485 90.1897 13.4232C90.2533 13.3614 90.289 13.2776 90.289 13.1903V8.27667C90.289 8.18932 90.3248 8.10554 90.3884 8.04377C90.452 7.982 90.5383 7.9473 90.6283 7.9473H93.7656C93.8556 7.9473 93.9419 7.982 94.0055 8.04377C94.0691 8.10554 94.1049 8.18932 94.1049 8.27667V13.1903C94.1049 13.2776 94.1406 13.3614 94.2043 13.4232C94.2679 13.485 94.3542 13.5197 94.4441 13.5197H96.7128C96.8028 13.5197 96.8891 13.5544 96.9527 13.6161C97.0163 13.6779 97.052 13.7617 97.052 13.849V16.293C97.052 16.3803 97.0163 16.4641 96.9527 16.5259C96.8891 16.5877 96.8028 16.6224 96.7128 16.6224H94.4444V16.6221ZM108.811 23.3091C109.524 22.5862 109.881 21.6425 109.881 20.4776C109.881 19.3134 109.524 18.3691 108.811 17.6463C108.097 16.9234 107.161 16.562 106.003 16.562C104.844 16.562 103.909 16.9234 103.195 17.6463C102.482 18.3691 102.125 19.3134 102.125 20.4776C102.125 21.6425 102.482 22.5862 103.195 23.3091C103.909 24.032 104.844 24.3934 106.003 24.3934C107.161 24.3934 108.097 24.032 108.811 23.3091ZM101.567 27.0139C100.512 26.4318 99.6789 25.5831 99.0692 24.4687C98.4588 23.3543 98.1539 22.0241 98.1539 20.4776C98.1539 18.9317 98.4588 17.601 99.0692 16.4867C99.6789 15.3723 100.512 14.5242 101.567 13.9415C102.621 13.3591 103.779 13.068 105.041 13.068C106.158 13.068 107.114 13.2788 107.911 13.7004C108.707 14.122 109.343 14.7146 109.819 15.4777H109.881V13.849C109.881 13.7617 109.917 13.6779 109.98 13.6161C110.044 13.5544 110.13 13.5197 110.22 13.5197H113.326C113.416 13.5197 113.503 13.5544 113.566 13.6161C113.63 13.6779 113.666 13.7617 113.666 13.849V27.1061C113.666 27.1935 113.63 27.2773 113.566 27.339C113.503 27.4008 113.416 27.4355 113.326 27.4355H110.22C110.13 27.4355 110.044 27.4008 109.98 27.339C109.917 27.2773 109.881 27.1935 109.881 27.1061V25.4777H109.819C109.343 26.2412 108.707 26.8332 107.911 27.2548C107.114 27.6764 106.158 27.8872 105.041 27.8872C103.779 27.8872 102.621 27.596 101.567 27.0139ZM126.585 23.3091C127.298 22.5862 127.655 21.6425 127.655 20.4776C127.655 19.3134 127.298 18.3691 126.585 17.6463C125.871 16.9234 124.935 16.562 123.777 16.562C122.619 16.562 121.683 16.9234 120.97 17.6463C120.256 18.3691 119.899 19.3134 119.899 20.4776C119.899 21.6425 120.256 22.5862 120.97 23.3091C121.683 24.032 122.619 24.3934 123.777 24.3934C124.935 24.3934 125.871 24.032 126.585 23.3091ZM121.869 27.2548C121.073 26.8332 120.437 26.2412 119.961 25.4777H119.899V27.1061C119.899 27.1935 119.863 27.2773 119.8 27.339C119.736 27.4008 119.65 27.4355 119.56 27.4355H116.423C116.333 27.4355 116.246 27.4008 116.183 27.339C116.119 27.2773 116.083 27.1935 116.083 27.1061V6.68008C116.083 6.59273 116.119 6.50895 116.183 6.44718C116.246 6.38541 116.333 6.35071 116.423 6.35071H119.56C119.65 6.35071 119.736 6.38541 119.8 6.44718C119.863 6.50895 119.899 6.59273 119.899 6.68008V15.4775H119.961C120.437 14.7144 121.073 14.122 121.869 13.7004C122.665 13.2786 123.622 13.0678 124.739 13.0678C126 13.0678 127.159 13.3589 128.214 13.9413C129.268 14.524 130.101 15.3721 130.711 16.4862C131.321 17.6013 131.626 18.9319 131.626 20.4778C131.626 22.0243 131.321 23.3543 130.711 24.4689C130.101 25.5833 129.269 26.432 128.214 27.0139C127.159 27.5962 126.001 27.8876 124.739 27.8876C123.622 27.8876 122.666 27.6768 121.87 27.255L121.869 27.2548ZM136.912 27.4357H133.775C133.685 27.4357 133.599 27.401 133.535 27.3393C133.472 27.2775 133.436 27.1937 133.436 27.1064V6.68074C133.436 6.59339 133.472 6.50961 133.535 6.44784C133.599 6.38607 133.685 6.35137 133.775 6.35137H136.912C137.002 6.35137 137.089 6.38607 137.152 6.44784C137.216 6.50961 137.252 6.59339 137.252 6.68074V27.1064C137.252 27.1937 137.216 27.2775 137.152 27.3393C137.089 27.401 137.002 27.4357 136.912 27.4357ZM144.313 16.7429C143.793 17.1368 143.442 17.7056 143.26 18.4495C143.21 18.6546 143.375 18.8513 143.592 18.8513H149.562C149.77 18.8513 149.932 18.6713 149.899 18.4728C149.78 17.769 149.469 17.208 148.966 16.7881C148.377 16.2963 147.606 16.0503 146.655 16.0503C145.704 16.0503 144.923 16.2811 144.313 16.7429ZM151.96 15.0108C153.18 16.3064 153.791 18.1388 153.791 20.5079V20.9014C153.791 20.9887 153.755 21.0725 153.691 21.1343C153.628 21.196 153.541 21.2308 153.451 21.2308H143.477C143.427 21.2309 143.378 21.2415 143.333 21.2619C143.288 21.2823 143.248 21.312 143.216 21.3489C143.184 21.3858 143.161 21.4291 143.148 21.4757C143.135 21.5222 143.132 21.571 143.141 21.6185C143.3 22.4986 143.701 23.1978 144.344 23.7158C145.078 24.3086 146.004 24.6044 147.121 24.6044C148.562 24.6044 149.897 24.0581 151.124 22.9652C151.274 22.8317 151.512 22.8601 151.628 23.0223L153.153 25.1479C153.201 25.214 153.222 25.2949 153.213 25.3751C153.203 25.4554 153.163 25.5294 153.101 25.5831C152.353 26.2194 151.52 26.7563 150.626 27.1797C149.633 27.6514 148.465 27.8876 147.121 27.8876C145.57 27.8876 144.214 27.5811 143.056 26.9689C141.898 26.3567 140.998 25.4933 140.358 24.3785C139.716 23.2641 139.396 21.974 139.396 20.5079C139.396 19.0424 139.706 17.7473 140.326 16.6224C140.947 15.4981 141.815 14.6246 142.932 14.0019C144.049 13.3798 145.352 13.0682 146.841 13.0682C149.033 13.0682 150.74 13.716 151.96 15.0108ZM74.8336 8.61878C74.8336 9.86118 73.7962 10.8684 72.5164 10.8684C71.2363 10.8684 70.1989 9.86118 70.1989 8.61856C70.1989 7.37594 71.2365 6.36871 72.5164 6.36871C73.7962 6.36871 74.8336 7.37594 74.8336 8.61856" fill="#333333"></path><path d="M17.8671 0.410299L2.94929 6.40338C2.11972 6.73671 2.12831 7.88096 2.96309 8.20221L17.9431 13.9698C19.2593 14.4766 20.725 14.4766 22.0412 13.9698L37.0214 8.20199C37.856 7.88096 37.865 6.73693 37.035 6.4036L22.1176 0.41008C20.7567 -0.136693 19.2278 -0.136693 17.8669 0.41008" fill="#FCB400"></path><path d="M21.3203 17.1191V31.5275C21.3203 32.2126 22.0321 32.682 22.6882 32.4295L39.3805 26.1389C39.5667 26.0673 39.7264 25.943 39.8389 25.7821C39.9514 25.6213 40.0115 25.4313 40.0115 25.2369V10.8287C40.0115 10.1434 39.2998 9.67415 38.6436 9.92667L21.9513 16.2173C21.7652 16.289 21.6055 16.4133 21.493 16.5741C21.3805 16.735 21.3203 16.9249 21.3203 17.1193" fill="#18BFFF"></path><path d="M17.4233 17.8626L12.4694 20.1849L11.9664 20.421L1.50897 25.2858C0.846308 25.5963 0 25.1273 0 24.4123V10.8891C0 10.6304 0.136603 10.4071 0.319797 10.2391C0.394951 10.1664 0.480214 10.1044 0.573101 10.0546C0.822787 9.90906 1.17922 9.8702 1.48228 9.98658L17.34 16.087C18.1461 16.3975 18.2094 17.4941 17.4233 17.8628" fill="#F82B60"></path><path d="M17.4238 17.8626L12.4699 20.1849L0.320312 10.2389C0.395482 10.1663 0.480744 10.1043 0.573617 10.0546C0.823303 9.90906 1.17974 9.8702 1.4828 9.98658L17.3406 16.087C18.1466 16.3975 18.21 17.4941 17.4238 17.8628" fill="black" fill-opacity="0.25"></path></svg>