<svg xmlns="http://www.w3.org/2000/svg" width="128" height="30" viewBox="0 0 128 30" fill="none"><path fill-rule="evenodd" clip-rule="evenodd" d="M99.5917 20.4324C102.891 20.4324 105.574 17.8024 105.574 14.5698C105.574 11.337 102.891 8.70708 99.5917 8.70708C96.2933 8.70708 93.6095 11.337 93.6095 14.5698C93.6095 17.8024 96.2933 20.4324 99.5917 20.4324ZM105.574 0H105.736H108.408V23.2296H105.574V20.9102C103.938 22.3959 101.829 23.2098 99.5917 23.2098C94.7307 23.2098 90.7757 19.3338 90.7757 14.5698C90.7757 9.80539 94.7307 5.9296 99.5917 5.9296C101.829 5.9296 103.938 6.74335 105.574 8.22916V0ZM40.8164 20.33C44.115 20.33 46.7986 17.7001 46.7986 14.4674C46.7986 11.2348 44.115 8.60486 40.8164 8.60486C37.5177 8.60486 34.8341 11.2348 34.8341 14.4674C34.8341 17.7001 37.5177 20.33 40.8164 20.33ZM34.8341 8.12711C36.4697 6.6413 38.5793 5.82743 40.8164 5.82743C45.6776 5.82743 49.6327 9.70335 49.6327 14.4674C49.6327 19.2315 45.6776 23.1074 40.8164 23.1074C38.5793 23.1074 36.4697 22.2937 34.8341 20.8078V29.037H32V5.80741H34.8341V8.12711ZM55.0402 13.1184C55.678 10.493 58.0547 8.60782 60.7656 8.60782C63.4412 8.60782 65.6824 10.4527 66.2797 13.1184H55.0402ZM60.7656 5.80741C55.9772 5.80741 52.0817 9.71538 52.0817 14.5185C52.0817 19.3218 55.9772 23.2296 60.7656 23.2296C63.4471 23.2296 65.9081 22.2226 67.5188 20.4667L68.3556 19.554L68.4634 19.4363L68.3461 19.3276L66.5268 17.649L66.4095 17.5405L66.301 17.6583L65.4643 18.5711C64.397 19.7346 62.6406 20.4294 60.7656 20.4294C58.0547 20.4294 55.6782 18.5442 55.0402 15.9186H69.2243V14.5185C69.2243 9.63378 65.5087 5.80741 60.7656 5.80741ZM125.166 14.5186C125.166 17.7778 122.482 20.4293 119.183 20.4293C115.885 20.4293 113.201 17.7778 113.201 14.5186C113.201 11.2593 115.885 8.6077 119.183 8.6077C122.482 8.6077 125.166 11.2593 125.166 14.5186ZM119.183 5.80741C114.322 5.80741 110.367 9.7152 110.367 14.5186C110.367 19.3218 114.322 23.2296 119.183 23.2296C124.045 23.2296 128 19.3218 128 14.5186C128 9.7152 124.045 5.80741 119.183 5.80741ZM79.7547 5.80741C77.7855 5.80741 75.9093 6.55733 74.4326 7.92699V5.80741H71.6735V23.2296H74.4326V14.3388C74.4326 11.1668 76.8201 8.58596 79.7547 8.58596C82.6898 8.58596 85.0779 11.1668 85.0779 14.3388V23.2296H87.8364V14.3388C87.8364 9.63461 84.211 5.80741 79.7547 5.80741Z" fill="#1A2022"></path><path fill-rule="evenodd" clip-rule="evenodd" d="M0 16.5925H13.3333V29.6296L26.6667 16.5925V3.55554H13.3333L0 16.5925Z" fill="#FF4876"></path></svg>