<svg xmlns="http://www.w3.org/2000/svg" width="129" height="44" viewBox="0 0 129 44" fill="none"><path d="M44.172 23.0545C44.1762 21.2621 43.6261 19.5123 42.597 18.0447C41.5679 16.5771 40.1102 15.4637 38.4236 14.8569C38.5771 14.0746 38.6545 13.2792 38.6547 12.482C38.6562 9.84323 37.8209 7.27193 36.2689 5.1378C34.7169 3.00368 32.5281 1.41666 30.0173 0.604915C27.5064 -0.206827 24.8029 -0.201477 22.2953 0.620194C19.7877 1.44187 17.6052 3.03753 16.0616 5.17779C14.9229 4.29533 13.5275 3.80803 12.087 3.78972C10.6464 3.7714 9.23914 4.22306 8.0783 5.07627C6.91746 5.92949 6.06631 7.13778 5.65377 8.51812C5.24123 9.89846 5.28978 11.3756 5.79207 12.7259C4.10152 13.3421 2.64022 14.4612 1.60473 15.9328C0.56924 17.4043 0.00923079 19.1577 2.95997e-05 20.957C-0.00466136 22.7556 0.548321 24.5114 1.58284 25.9827C2.61736 27.4541 4.08255 28.5685 5.77666 29.1726C5.6267 29.9545 5.5502 30.7488 5.54817 31.5449C5.54565 34.1806 6.38025 36.7491 7.93163 38.8799C9.48302 41.0107 11.671 42.5937 14.1802 43.4008C16.6893 44.2079 19.3899 44.1972 21.8926 43.3704C24.3953 42.5436 26.5707 40.9433 28.1053 38.8004C29.2407 39.685 30.6337 40.1753 32.0729 40.1968C33.5121 40.2182 34.9191 39.7698 36.0805 38.9194C37.2418 38.069 38.0941 36.8631 38.5082 35.4845C38.9222 34.106 38.8754 32.63 38.3749 31.2805C40.0663 30.6653 41.5286 29.5465 42.5646 28.0748C43.6007 26.6031 44.1608 24.8492 44.1695 23.0494" fill="white"></path><path d="M17.3675 18.952L27.0337 23.3654L36.7898 14.8211C36.9304 14.1161 37 13.3988 36.9978 12.6799C36.9973 10.3525 36.2519 8.08643 34.8708 6.21318C33.4897 4.33994 31.5453 2.95788 29.3222 2.26925C27.099 1.58062 24.7138 1.62156 22.5157 2.38608C20.3175 3.15061 18.4216 4.59858 17.1056 6.51812L15.4805 14.9238L17.3675 18.952Z" fill="#FEC514"></path><path d="M7.36154 29.1883C7.21901 29.9044 7.14763 30.6328 7.14844 31.3629C7.14849 33.6999 7.89766 35.9754 9.286 37.8554C10.6743 39.7353 12.6287 41.1208 14.8623 41.8083C17.0959 42.4959 19.4911 42.4494 21.6964 41.6756C23.9016 40.9019 25.8007 39.4416 27.1151 37.5092L28.7248 29.1215L26.5759 25.0137L16.8737 20.5927L7.36154 29.1883Z" fill="#00BFB3"></path><path d="M7.30371 12.4617L13.9276 14.0253L15.3782 6.49252C14.4772 5.80937 13.3792 5.43642 12.2486 5.42954C11.1179 5.42266 10.0155 5.7822 9.10629 6.45434C8.19709 7.12648 7.53008 8.07504 7.20513 9.15801C6.88017 10.241 6.91476 11.4001 7.30371 12.4617Z" fill="#F04E98"></path><path d="M6.72629 14.0381C5.27294 14.5285 4.00856 15.4597 3.10899 16.702C2.20942 17.9444 1.71938 19.4362 1.70703 20.9701C1.70599 22.4524 2.15616 23.9 2.99769 25.1203C3.83923 26.3407 5.03226 27.276 6.4182 27.8019L15.7122 19.4014L14.0048 15.7557L6.72629 14.0381Z" fill="#1BA9F5"></path><path d="M28.8125 37.5091C29.712 38.1888 30.8072 38.5593 31.9346 38.5653C33.062 38.5713 34.1611 38.2125 35.0677 37.5424C35.9744 36.8723 36.64 35.9269 36.9651 34.8474C37.2902 33.7678 37.2574 32.6121 36.8715 31.5528L30.2528 30.0123L28.8125 37.5091Z" fill="#93C90E"></path><path d="M30.1598 28.2691L37.4461 29.9713C38.9002 29.4822 40.1655 28.5514 41.0653 27.3087C41.965 26.066 42.4545 24.5735 42.4653 23.0393C42.464 21.5601 42.0129 20.1162 41.172 18.8992C40.331 17.6823 39.1399 16.7498 37.7567 16.2255L28.2266 24.5695L30.1598 28.2691Z" fill="#0077CC"></path><path d="M61.7628 30.9136L62.646 30.8237L62.7076 32.6209C60.7423 32.9176 58.7591 33.0806 56.7718 33.1087C54.5809 33.1087 53.0285 32.4745 52.1145 31.2062C51.2005 29.9379 50.7444 27.9645 50.7461 25.2858C50.7461 19.9508 52.8668 17.2824 57.1081 17.2807C59.162 17.2807 60.6939 17.8541 61.7037 19.0008C62.7136 20.1476 63.2202 21.9448 63.2236 24.3924L63.103 26.1279H53.0593C53.0593 27.8121 53.364 29.0599 53.9733 29.8712C54.5826 30.6825 55.6421 31.0881 57.1517 31.0881C58.6648 31.0933 60.2018 31.0351 61.7628 30.9136ZM60.9412 24.3102C60.9412 22.4429 60.6425 21.1241 60.0452 20.3539C59.4478 19.5836 58.474 19.1977 57.1235 19.196C55.7731 19.196 54.7581 19.6016 54.0786 20.4129C53.3991 21.2242 53.049 22.5233 53.0285 24.3102H60.9412Z" fill="#1C1E23"></path><path d="M66.4072 32.988V12.9623H68.6896V32.988H66.4072Z" fill="#1C1E23"></path><path d="M83.0646 22.1793V29.8558C83.0646 30.626 84.9593 30.5849 84.9593 30.5849L84.8438 32.6029C83.2391 32.6029 81.9118 32.7364 81.1159 31.9636C79.3924 32.7291 77.5255 33.1186 75.6397 33.1061C74.2413 33.1061 73.1758 32.7099 72.4433 31.9174C71.7107 31.1249 71.3453 29.9859 71.347 28.5002C71.347 27.018 71.7227 25.9268 72.4741 25.2268C73.2255 24.5267 74.4022 24.0988 76.0042 23.9431L80.7822 23.4886V22.1793C80.7822 21.1523 80.5596 20.4112 80.1146 19.9559C79.8708 19.727 79.5831 19.5499 79.2689 19.4352C78.9548 19.3204 78.6206 19.2705 78.2866 19.2884H72.2892V17.2781H78.1352C79.8604 17.2781 81.1133 17.6743 81.8938 18.4668C82.6743 19.2593 83.0646 20.4968 83.0646 22.1793ZM73.6859 28.3872C73.6859 30.2546 74.4561 31.1883 75.9965 31.1883C77.3862 31.1867 78.7656 30.9497 80.0761 30.4874L80.7744 30.2435V25.2216L76.2789 25.6478C75.365 25.73 74.7051 25.9936 74.2995 26.4386C73.8938 26.8836 73.6893 27.5331 73.6859 28.3872Z" fill="#1C1E23"></path><path d="M91.9758 19.3192C89.7627 19.3192 88.6561 20.0894 88.6561 21.6298C88.6561 22.3419 88.9129 22.8442 89.4263 23.1369C89.9398 23.4296 91.096 23.7343 92.8949 24.0509C94.7023 24.3675 95.9809 24.8091 96.7306 25.3757C97.4803 25.9422 97.8559 27.0068 97.8577 28.5695C97.8577 30.1339 97.3553 31.2807 96.3506 32.0098C95.3459 32.739 93.8799 33.1044 91.9526 33.1061C90.6946 33.1061 86.4944 32.6388 86.4944 32.6388L86.6176 30.6619C89.0309 30.893 90.7742 31.065 91.9526 31.065C93.1311 31.065 94.0271 30.8776 94.6458 30.5028C95.2646 30.1279 95.5727 29.4989 95.5727 28.6157C95.5727 27.7325 95.3159 27.1343 94.7819 26.8185C94.2479 26.5028 93.0977 26.2049 91.3134 25.92C89.529 25.635 88.2582 25.2191 87.5085 24.6722C86.7588 24.1254 86.3814 23.1087 86.3814 21.6273C86.3814 20.1459 86.8949 19.0599 87.9501 18.341C89.0053 17.6221 90.2993 17.2755 91.8602 17.2755C93.0977 17.2755 97.393 17.5913 97.393 17.5913V19.5811C95.1259 19.4809 93.2723 19.3192 91.9758 19.3192Z" fill="#1C1E23"></path><path d="M108.859 19.5605H104.02V26.8365C104.02 28.5806 104.146 29.7266 104.399 30.2743C104.656 30.8237 105.257 31.0958 106.21 31.0958L108.918 30.9135L109.072 32.8006C108.046 32.9902 107.008 33.1026 105.966 33.1369C104.384 33.1369 103.289 32.7509 102.679 31.979C102.07 31.2071 101.766 29.736 101.768 27.5657V19.5605H99.6164V17.5836H101.778V12.9264H104.03V17.5836H108.859V19.5605Z" fill="#1C1E23"></path><path d="M112.032 15.6401V12.9906H114.315V15.6401H112.032ZM112.032 32.988V17.5836H114.315V32.988H112.032Z" fill="#1C1E23"></path><path d="M124.202 17.2781C125.342 17.3268 126.477 17.4494 127.601 17.6453L128.33 17.7351L128.24 19.5913C127.048 19.4402 125.848 19.3494 124.646 19.3192C122.921 19.3192 121.749 19.73 121.131 20.5515C120.513 21.3731 120.204 22.8947 120.202 25.1164C120.202 27.3414 120.491 28.8887 121.07 29.7582C121.648 30.6277 122.855 31.0642 124.69 31.0676L128.284 30.7955L128.376 32.6825C126.977 32.9195 125.564 33.0619 124.145 33.1087C121.773 33.1087 120.135 32.4993 119.231 31.2807C118.328 30.062 117.876 28.0081 117.876 25.1189C117.876 22.2281 118.363 20.199 119.337 19.0317C120.31 17.8643 121.932 17.2798 124.202 17.2781Z" fill="#1C1E23"></path></svg>