<svg xmlns="http://www.w3.org/2000/svg" width="178" height="48" viewBox="0 0 178 48" fill="none"><path d="M74.5904 28.951V21.8439C74.5904 21.6584 74.4659 21.5349 74.2795 21.5349H71.9159V18.7537H74.2795C74.4659 18.7537 74.5904 18.6301 74.5904 18.4447V13.9951H77.9488V18.4447C77.9488 18.6301 78.0733 18.7537 78.2599 18.7537H81.5562V21.5349H78.2599C78.0733 21.5349 77.9488 21.6584 77.9488 21.8439V28.1477C77.9488 31.1142 79.0062 31.3613 80.3745 31.3613C80.8721 31.3613 81.6184 31.2995 82.0537 31.2377V34.1423C81.4941 34.2042 80.5611 34.3278 79.5038 34.3278C78.1976 34.266 74.5904 34.266 74.5904 28.951ZM165.893 30.6815L168.629 29.26C169.251 30.6815 170.433 31.6085 171.801 31.6085C172.859 31.6085 174.04 31.1758 174.04 29.878C174.04 29.0128 173.481 28.5184 172.174 28.0859L170.309 27.4679C167.696 26.6644 166.39 25.1812 166.39 23.0799C166.39 20.4224 168.629 18.4447 171.677 18.4447C174.102 18.4447 176.155 19.7426 177.15 21.782L174.414 23.2652C173.792 21.9674 172.796 21.2259 171.615 21.2259C170.433 21.2259 169.624 21.8439 169.624 22.7709C169.624 23.5742 170.246 24.1924 171.49 24.563L173.356 25.1812C176.093 26.0464 177.399 27.5295 177.399 29.569C177.399 32.7828 174.6 34.4515 171.801 34.4515C169.002 34.3897 166.763 32.9682 165.893 30.6815ZM155.568 27.9004C155.506 27.9622 155.444 28.024 155.444 28.0859V34.0188H152.023V12.0791H155.444V24.0687C155.444 24.1924 155.506 24.3159 155.63 24.3159C155.755 24.3777 155.879 24.3159 155.942 24.254L161.477 18.6919H165.644L159.176 25.1812C159.051 25.3047 159.051 25.4284 159.176 25.5519L166.204 34.0188H162.037L156.626 27.3442C156.563 27.2824 156.501 27.2205 156.439 27.2205C156.377 27.2205 156.315 27.2205 156.252 27.2824L155.568 27.9004ZM150.344 20.7932L148.167 22.8327C146.923 21.9057 145.679 21.473 144.311 21.473C141.45 21.473 139.335 23.5742 139.335 26.4172C139.335 29.26 141.45 31.3613 144.311 31.3613C145.555 31.3613 146.861 30.9287 148.229 30.0017L150.157 32.0412C147.359 34.0807 145.866 34.4515 143.938 34.4515C141.637 34.4515 139.584 33.648 138.091 32.1647C136.661 30.7433 135.853 28.642 135.853 26.4172C135.853 21.782 139.273 18.3829 144 18.3829C145.555 18.3829 147.856 18.6301 150.344 20.7932ZM134.298 14.1804C134.298 15.2929 133.365 16.2199 132.245 16.2199C131.126 16.2199 130.193 15.2929 130.193 14.1804C130.193 13.0679 131.126 12.1409 132.245 12.1409C133.365 12.1409 134.298 13.0679 134.298 14.1804ZM133.987 34.0188H130.566V18.7537H133.987V34.0188ZM123.103 27.3442V34.0807H119.682V18.8156H123.04V20.6696C123.04 20.7932 123.103 20.9169 123.227 20.9786C123.351 21.0404 123.476 20.9786 123.538 20.855C124.409 19.4336 126.026 18.5066 127.767 18.5066C128.016 18.5066 128.203 18.5066 128.327 18.5684V22.0292C128.14 21.9674 127.829 21.9674 127.518 21.9674C124.782 21.9057 123.103 24.0069 123.103 27.3442ZM104.755 26.4172C104.755 23.636 106.87 21.473 109.606 21.473C112.343 21.473 114.457 23.636 114.457 26.4172C114.457 29.1982 112.343 31.3613 109.606 31.3613C106.87 31.3613 104.755 29.1982 104.755 26.4172ZM105.066 32.2265C105.128 32.2265 105.128 32.2265 105.19 32.2265C105.252 32.2265 105.377 32.2883 105.439 32.3502C106.621 33.7098 108.362 34.4515 110.353 34.4515C114.582 34.4515 117.816 30.9287 117.816 26.4172C117.816 24.1924 117.07 22.2147 115.639 20.6696C114.271 19.1864 112.343 18.3829 110.29 18.3829C108.362 18.3829 106.559 19.1864 105.377 20.6077C105.315 20.6696 105.19 20.7314 105.066 20.6696C104.942 20.6077 104.879 20.5461 104.879 20.4224V12.1409H101.459V34.0807H104.879V32.5355C104.879 32.3502 104.942 32.2883 105.066 32.2265ZM90.8854 31.3613C88.2111 31.3613 86.0342 29.1982 86.0342 26.4172C86.0342 23.636 88.149 21.473 90.8854 21.473C93.622 21.473 95.7366 23.636 95.7366 26.4172C95.7366 29.1982 93.5599 31.3613 90.8854 31.3613ZM98.9086 34.0188V18.7537H95.5502V20.2987C95.5502 20.4224 95.4879 20.546 95.3636 20.546C95.2391 20.6077 95.1148 20.546 95.0525 20.4842C93.9331 19.1246 92.1916 18.3829 90.1391 18.3829C85.9099 18.3829 82.6757 21.9057 82.6757 26.4172C82.6757 30.9287 85.972 34.4515 90.1391 34.4515C92.0671 34.4515 93.8708 33.648 95.0525 32.2265C95.1148 32.103 95.2391 32.103 95.3636 32.1647C95.4879 32.2265 95.5502 32.2883 95.5502 32.412V34.0807H98.9086V34.0188ZM62.0892 31.3613C59.4147 31.3613 57.238 29.1982 57.238 26.4172C57.238 23.636 59.3526 21.473 62.0892 21.473C64.7635 21.473 66.9404 23.636 66.9404 26.4172C66.9404 29.1982 64.7635 31.3613 62.0892 31.3613ZM70.1124 34.0188V18.7537H66.7538V20.2987C66.7538 20.4224 66.6916 20.546 66.5672 20.546C66.4429 20.6077 66.3184 20.546 66.2562 20.4842C65.1367 19.1246 63.3952 18.3829 61.3429 18.3829C57.1135 18.3829 53.8794 21.9057 53.8794 26.4172C53.8794 30.9287 57.1758 34.4515 61.3429 34.4515C63.2709 34.4515 65.0746 33.648 66.2562 32.2265C66.3184 32.103 66.4429 32.103 66.5672 32.1647C66.6916 32.2265 66.7538 32.2883 66.7538 32.412V34.0807H70.1124V34.0188ZM43.9282 31.3613C41.1916 31.3613 39.077 29.1982 39.077 26.4172C39.077 23.636 41.1916 21.473 43.9282 21.473C46.6026 21.473 48.7794 23.636 48.7794 26.4172C48.7794 29.1982 46.6026 31.3613 43.9282 31.3613ZM51.9514 34.0188V12.1409H48.5306V20.3606C48.5306 20.4842 48.4684 20.6077 48.344 20.6077C48.2196 20.6696 48.0953 20.6077 48.0331 20.546C46.8514 19.1864 45.1099 18.4447 43.1197 18.4447C38.8904 18.4447 35.6562 21.9674 35.6562 26.479C35.6562 28.7039 36.4026 30.6815 37.8331 32.2265C39.2014 33.7098 41.1294 34.5132 43.1818 34.5132C45.1099 34.5132 46.9136 33.7098 48.0953 32.2883C48.1575 32.2265 48.2818 32.1647 48.4062 32.2265C48.5306 32.2883 48.5928 32.3502 48.5928 32.4738V34.0807H51.9514V34.0188Z" fill="black"></path><path d="M26.9993 20.7622L14.2282 28.0056L0.64284 20.288L0 20.6328V26.2379L14.2282 34.3436L26.9993 27.1002V30.0751L14.2282 37.3186L0.64284 29.6008L0 29.9458V30.8944L14.2282 39L28.4993 30.8944V25.2893L27.8565 24.9443L14.2282 32.6621L1.49992 25.4186V22.4868L14.2282 29.6871L28.4993 21.5814V16.0626L27.7707 15.6746L14.2282 23.3491L2.18559 16.4937L14.2282 9.6815L24.1708 15.2865L25.0708 14.8122V14.1224L14.2282 8L0 16.0626V16.9249L14.2282 25.0306L26.9993 17.7872V20.7622Z" fill="#FF3621"></path></svg>