<svg xmlns="http://www.w3.org/2000/svg" width="163" height="48" viewBox="0 0 163 48" fill="none"><path d="M9.97846 32.0001C9.12186 31.1397 8.44421 30.1196 7.98433 28.9981C7.52445 27.8767 7.29137 26.6759 7.29844 25.4647C7.29532 24.2535 7.53486 23.0538 8.00303 21.9358C8.4712 20.8178 9.15862 19.8039 10.0251 18.9535C10.3962 18.6251 10.6962 18.2248 10.9065 17.777C11.1168 17.3293 11.2331 16.8435 11.2482 16.3495C11.2633 15.8555 11.177 15.3636 10.9945 14.9039C10.8119 14.4443 10.5371 14.0265 10.1867 13.6763C9.83631 13.326 9.4178 13.0506 8.95676 12.867C8.49573 12.6833 8.00188 12.5953 7.50547 12.6082C7.00905 12.6211 6.5205 12.7347 6.06974 12.9421C5.61898 13.1495 5.2155 13.4463 4.88399 13.8143C1.77015 16.8952 0.0133822 21.081 7.61375e-05 25.4511C-0.01323 29.8211 1.71802 34.0175 4.81303 37.1171C5.14346 37.4846 5.54562 37.7813 5.995 37.989C6.44438 38.1968 6.93155 38.3112 7.42683 38.3255C7.92211 38.3397 8.41511 38.2534 8.87578 38.0718C9.33646 37.8902 9.75515 37.6172 10.1063 37.2693C10.4575 36.9214 10.7338 36.5059 10.9185 36.0483C11.1031 35.5906 11.1921 35.1004 11.1801 34.6074C11.1682 34.1143 11.0555 33.6289 10.8489 33.1807C10.6423 32.7324 10.3461 32.3308 9.97846 32.0001Z" fill="#FFDA00"></path><path d="M10.0253 18.9532C11.7715 17.2326 14.1319 16.2713 16.5891 16.28C19.0462 16.2887 21.3996 17.2667 23.1335 18.9996C23.4628 19.3709 23.8649 19.6714 24.3151 19.8823C24.7653 20.0933 25.2541 20.2104 25.7515 20.2264C26.2488 20.2425 26.7442 20.1571 27.2072 19.9755C27.6702 19.7939 28.091 19.52 28.4437 19.1706C28.7964 18.8212 29.0735 18.4037 29.2582 17.9438C29.4428 17.4838 29.5309 16.9912 29.5172 16.4961C29.5034 16.001 29.3881 15.5139 29.1782 15.0648C28.9684 14.6157 28.6685 14.2141 28.2969 13.8846C26.7701 12.3453 24.9527 11.1214 22.9493 10.2832C20.9458 9.44499 18.7958 9.00895 16.6225 9.00014C14.4493 8.99132 12.2957 9.40991 10.2855 10.2319C8.27524 11.0538 6.44795 12.2629 4.90856 13.7898C4.53605 14.1165 4.23444 14.5154 4.02218 14.9621C3.80993 15.4088 3.69149 15.8939 3.67411 16.3877C3.65674 16.8816 3.74079 17.3737 3.92114 17.8341C4.10148 18.2945 4.37432 18.7134 4.72295 19.0653C5.07158 19.4171 5.48868 19.6944 5.94871 19.8802C6.40874 20.066 6.90203 20.1564 7.39839 20.1459C7.89475 20.1355 8.38374 20.0243 8.83543 19.8192C9.28712 19.6141 9.69202 19.3194 10.0253 18.9532Z" fill="#67B3FF"></path><path d="M23.1116 32.0462C22.2475 32.9005 21.2226 33.5768 20.0955 34.0362C18.9684 34.4957 17.7613 34.7293 16.5434 34.7238C15.3257 34.7256 14.12 34.4856 12.9967 34.0178C11.8733 33.5501 10.8551 32.8641 10.0014 31.9998C9.67152 31.6304 9.26933 31.3319 8.81948 31.1226C8.36962 30.9132 7.88158 30.7975 7.38522 30.7824C6.88886 30.7674 6.39464 30.8533 5.93281 31.035C5.47098 31.2167 5.05127 31.4902 4.69937 31.839C4.34747 32.1877 4.07079 32.6043 3.88627 33.0631C3.70175 33.522 3.61327 34.0135 3.62625 34.5076C3.63923 35.0017 3.7534 35.488 3.96176 35.9366C4.17012 36.3853 4.4683 36.7869 4.83803 37.1168C6.36751 38.656 8.18713 39.8796 10.1926 40.7175C12.1981 41.5554 14.35 41.9912 16.525 41.9998C18.7 42.0084 20.8554 41.5898 22.8675 40.7678C24.8796 39.9458 26.709 38.7366 28.2507 37.2096C28.5913 36.8738 28.8622 36.4744 29.0477 36.0344C29.2333 35.5944 29.33 35.1223 29.3322 34.6451C29.3345 34.1678 29.2423 33.6948 29.0609 33.2531C28.8795 32.8113 28.6125 32.4095 28.275 32.0705C27.9376 31.7314 27.5364 31.4619 27.0943 31.2772C26.6522 31.0925 26.1778 30.9962 25.6984 30.994C25.2189 30.9917 24.7437 31.0835 24.2999 31.2641C23.856 31.4446 23.4523 31.7104 23.1116 32.0462Z" fill="#EB5A68"></path><path d="M10.0247 18.9531C9.51321 19.4615 8.86155 19.8073 8.15235 19.9466C7.44315 20.0859 6.70836 20.0124 6.04119 19.7354C5.37402 19.4585 4.80454 18.9905 4.40497 18.3909C4.00541 17.7913 3.79377 17.0871 3.79691 16.3676C3.80004 15.6482 4.01781 14.9458 4.42259 14.3497C4.82736 13.7536 5.4009 13.2906 6.07046 13.0194C6.74002 12.7482 7.47542 12.681 8.18338 12.8264C8.89134 12.9718 9.53996 13.3232 10.047 13.8361C10.7224 14.5193 11.0991 15.4406 11.0949 16.3991C11.0908 17.3577 10.706 18.2757 10.0247 18.9531Z" fill="#47A1FF"></path><path d="M9.95333 37.1169C9.44167 37.6252 8.78988 37.9707 8.08062 38.1097C7.37136 38.2487 6.63661 38.1749 5.96955 37.8977C5.30249 37.6205 4.73319 37.1523 4.33387 36.5525C3.93454 35.9528 3.72318 35.2485 3.7266 34.529C3.73002 33.8096 3.94807 33.1073 4.35308 32.5114C4.75809 31.9154 5.33181 31.4526 6.00148 31.1817C6.67114 30.9107 7.40657 30.8439 8.11447 30.9895C8.82238 31.1352 9.47086 31.4869 9.97765 31.9999C10.6528 32.6834 11.0292 33.6049 11.0246 34.5634C11.0201 35.5219 10.635 36.4398 9.95333 37.1169Z" fill="#D5465F"></path><path d="M44.5339 29.024C45.5861 28.233 45.726 28.6749 46.6139 29.5587C47.0579 30.0006 48.2722 30.7693 47.4775 31.419C45.8192 32.7669 44.3231 33.3722 42.2067 33.3722C37.4163 33.35 34.0287 29.7907 34.3004 25.0692C34.416 22.9546 35.2573 20.953 36.9176 19.581C38.436 18.3017 40.3274 17.7448 42.3141 17.7912C43.2878 17.7884 44.2525 17.9776 45.1523 18.3481C45.7617 18.5671 46.336 18.873 46.8572 19.2561C47.9093 20.0632 47.4187 20.5354 46.5997 21.3485C46.4132 21.5341 46.2267 21.7218 46.0625 21.9074C45.6428 22.3251 45.3611 22.6277 44.8015 22.2323C43.7271 21.4877 42.3688 21.0923 41.0856 21.4252C36.95 22.4704 37.1365 29.7968 42.2087 29.821C43.0495 29.81 43.8646 29.5306 44.5339 29.024ZM159.493 33.463C159.327 33.4638 159.163 33.4319 159.009 33.3691C158.856 33.3064 158.716 33.214 158.599 33.0973C158.481 32.9806 158.388 32.842 158.325 32.6893C158.262 32.5367 158.23 32.3731 158.23 32.208L158.301 15.9753C158.3 15.8101 158.332 15.6465 158.395 15.4937C158.458 15.341 158.551 15.2022 158.668 15.0853C158.786 14.9685 158.925 14.8759 159.078 14.8129C159.232 14.7498 159.396 14.7177 159.562 14.7182H160.918C161.084 14.7177 161.249 14.7499 161.402 14.813C161.556 14.8762 161.695 14.969 161.812 15.086C161.93 15.2031 162.022 15.3422 162.085 15.4951C162.148 15.6481 162.18 15.812 162.179 15.9773L162.108 32.21C162.109 32.375 162.077 32.5386 162.014 32.6912C161.951 32.8438 161.858 32.9825 161.741 33.0992C161.623 33.2159 161.484 33.3083 161.331 33.3711C161.177 33.4339 161.013 33.4658 160.847 33.465L159.493 33.463ZM152.398 31.5805C150.926 32.9525 149.523 33.6728 147.443 33.6728C143.239 33.6486 141.228 30.1842 141.228 26.3L141.252 19.696C141.251 19.5309 141.284 19.3674 141.347 19.2149C141.41 19.0624 141.503 18.9238 141.621 18.8073C141.738 18.6908 141.878 18.5986 142.031 18.5361C142.185 18.4735 142.349 18.4419 142.515 18.443H143.871C144.037 18.4422 144.201 18.4741 144.355 18.5369C144.508 18.5997 144.647 18.6921 144.764 18.8088C144.882 18.9255 144.975 19.0641 145.038 19.2168C145.101 19.3694 145.133 19.533 145.132 19.698L145.11 26.3021C145.11 28.4651 146.277 30.162 148.568 30.162C150.859 30.162 152.26 28.2552 152.282 26.1265V23.7678C152.264 23.6762 152.256 23.5827 152.26 23.4893L152.282 19.7444C152.281 19.5794 152.313 19.4158 152.376 19.2632C152.44 19.1105 152.532 18.9719 152.65 18.8552C152.767 18.7385 152.906 18.6461 153.06 18.5833C153.213 18.5205 153.377 18.4886 153.543 18.4894H154.881C155.047 18.4886 155.211 18.5205 155.365 18.5833C155.518 18.6461 155.657 18.7385 155.774 18.8552C155.892 18.9719 155.985 19.1105 156.048 19.2632C156.111 19.4158 156.143 19.5794 156.142 19.7444L156.097 32.21C156.094 32.5398 155.96 32.8549 155.723 33.086C155.487 33.3172 155.168 33.4455 154.836 33.4428H153.691C153.366 33.4327 153.057 33.2996 152.826 33.0705C152.596 32.8415 152.463 32.5338 152.452 32.21L152.398 31.5805ZM136.267 18.4894H138.884C139.05 18.4917 139.214 18.5268 139.366 18.5925C139.518 18.6582 139.656 18.7532 139.771 18.8721C139.886 18.9911 139.977 19.1315 140.037 19.2854C140.097 19.4393 140.126 19.6035 140.123 19.7686V20.6282C140.12 20.9595 139.987 21.2766 139.752 21.5113C139.517 21.746 139.199 21.8795 138.866 21.8832H136.243L136.196 32.1394C136.197 32.3045 136.165 32.4682 136.102 32.6209C136.039 32.7736 135.946 32.9124 135.828 33.0293C135.711 33.1462 135.572 33.2388 135.419 33.3018C135.265 33.3648 135.101 33.3969 134.935 33.3964H133.581C133.415 33.3969 133.25 33.3648 133.097 33.3018C132.943 33.2388 132.804 33.1463 132.687 33.0294C132.569 32.9126 132.476 32.7738 132.413 32.621C132.35 32.4683 132.317 32.3046 132.318 32.1394L132.364 17.9547C132.364 14.8615 134.14 12.418 137.319 12.1395C137.412 12.1395 137.481 12.1174 137.574 12.1174C137.761 12.1053 137.949 12.1053 138.136 12.1174H139.352C139.518 12.1197 139.682 12.1547 139.834 12.2203C139.986 12.2858 140.124 12.3807 140.239 12.4994C140.354 12.6181 140.444 12.7583 140.505 12.912C140.565 13.0656 140.594 13.2296 140.591 13.3946V14.1855C140.589 14.5179 140.455 14.8361 140.219 15.0714C139.983 15.3066 139.664 15.4399 139.33 15.4426H138.349C136.853 15.4426 136.222 16.5806 136.198 17.9769L136.267 18.4894ZM126.875 18.443H129.743C130.075 18.4462 130.391 18.5801 130.623 18.8154C130.856 19.0507 130.985 19.3682 130.982 19.698V20.5576C130.979 20.8874 130.844 21.2025 130.608 21.4336C130.371 21.6648 130.052 21.7931 129.721 21.7904H126.85L126.828 28.0656C126.828 29.2762 127.412 29.9723 128.626 29.9723H129.21C129.542 29.976 129.858 30.1104 130.09 30.3461C130.323 30.5817 130.451 30.8993 130.449 31.2294V32.101C130.445 32.4307 130.31 32.7455 130.074 32.9765C129.838 33.2075 129.519 33.336 129.188 33.3339H128.089C127.886 33.3379 127.683 33.3298 127.481 33.3097C124.373 33.1079 122.994 31.1022 122.994 28.0777C123.019 24.0079 123.019 19.9623 123.041 15.8925C123.043 15.7291 123.077 15.5675 123.141 15.417C123.205 15.2666 123.299 15.1302 123.416 15.0158C123.533 14.9013 123.672 14.8109 123.824 14.7498C123.977 14.6887 124.14 14.6581 124.304 14.6597H125.636C125.967 14.6629 126.284 14.7969 126.516 15.0322C126.748 15.2675 126.877 15.5849 126.875 15.9147V18.443ZM85.3161 18.2795H88.1846C88.516 18.2827 88.8326 18.4167 89.0648 18.652C89.297 18.8873 89.426 19.2047 89.4233 19.5346V20.3981C89.4195 20.7278 89.2848 21.0426 89.0485 21.2736C88.8122 21.5047 88.4936 21.6331 88.1623 21.631H85.2836V27.9082C85.2836 29.1188 85.8675 29.8149 87.0818 29.8149H87.6677C87.8317 29.8165 87.9937 29.8502 88.1446 29.9142C88.2955 29.9781 88.4323 30.071 88.5471 30.1875C88.662 30.3041 88.7526 30.442 88.8139 30.5934C88.8752 30.7448 88.9059 30.9067 88.9043 31.07V31.9295C88.9011 32.2594 88.7665 32.5744 88.5301 32.8056C88.2937 33.0367 87.9747 33.165 87.6433 33.1624H86.7797C83.3902 33.1402 81.4278 31.6975 81.4278 27.9162C81.4521 23.8465 81.4521 19.7989 81.4744 15.7291C81.4782 15.3991 81.6132 15.084 81.85 14.8529C82.0867 14.6218 82.4058 14.4936 82.7374 14.4963H84.0693C84.4007 14.5 84.7171 14.6345 84.9489 14.8702C85.1808 15.1058 85.3092 15.4235 85.3059 15.7533L85.3161 18.2795ZM68.4473 20.0471C69.8259 18.7678 71.322 17.9547 73.26 17.9547C77.4666 17.9769 79.6398 21.3848 79.6155 25.3255L79.5931 31.9295C79.5937 32.0947 79.5614 32.2584 79.4981 32.4112C79.4348 32.564 79.3418 32.7027 79.2244 32.8196C79.107 32.9364 78.9676 33.029 78.8141 33.092C78.6607 33.155 78.4962 33.1871 78.3302 33.1866H76.976C76.81 33.1871 76.6455 33.155 76.492 33.092C76.3385 33.029 76.1991 32.9364 76.0817 32.8196C75.9643 32.7027 75.8713 32.564 75.808 32.4112C75.7448 32.2584 75.7125 32.0947 75.713 31.9295L75.7373 25.3719C75.7373 23.2089 74.5696 21.5119 72.2788 21.5119C69.9881 21.5119 68.5872 23.3965 68.5649 25.5353L68.5406 31.9295C68.5374 32.2594 68.4028 32.5744 68.1664 32.8056C67.93 33.0367 67.611 33.165 67.2797 33.1624H65.9478C65.6164 33.1592 65.2998 33.0252 65.0676 32.7899C64.8353 32.5546 64.7064 32.2372 64.7091 31.9073C64.7314 27.9304 64.7314 23.9312 64.7557 19.9542V19.4195C64.7568 19.0901 64.8891 18.7744 65.1235 18.5418C65.358 18.3092 65.6755 18.1786 66.0065 18.1786H67.1519C67.4774 18.1883 67.7868 18.3212 68.0171 18.5504C68.2473 18.7795 68.3809 19.0876 68.3906 19.4115L68.4473 20.0471ZM110.085 20.2085C111.464 18.9313 112.958 18.1161 114.898 18.1161C119.104 18.1403 121.275 21.5583 121.253 25.4889L121.229 32.101C121.23 32.2662 121.197 32.4298 121.134 32.5826C121.071 32.7353 120.979 32.8741 120.861 32.991C120.744 33.1078 120.605 33.2004 120.451 33.2634C120.298 33.3264 120.134 33.3586 119.968 33.3581H118.614C118.448 33.3586 118.283 33.3265 118.13 33.2635C117.976 33.2005 117.837 33.1079 117.719 32.9911C117.602 32.8743 117.509 32.7355 117.446 32.5827C117.382 32.43 117.35 32.2663 117.351 32.101L117.375 25.5434C117.375 23.3804 116.205 21.6834 113.916 21.6834C111.628 21.6834 110.225 23.566 110.201 25.7068L110.168 32.101C110.164 32.431 110.029 32.7461 109.793 32.9772C109.556 33.2083 109.237 33.3366 108.905 33.3339H107.573C107.242 33.3301 106.926 33.1959 106.694 32.9607C106.463 32.7254 106.334 32.4083 106.337 32.0788L106.383 19.589C106.384 19.4249 106.417 19.2624 106.481 19.111C106.545 18.9597 106.638 18.8224 106.755 18.707C106.873 18.5917 107.012 18.5006 107.165 18.439C107.318 18.3774 107.481 18.3465 107.646 18.3481H108.792C109.118 18.3589 109.428 18.4936 109.658 18.7248C109.888 18.9559 110.021 19.2659 110.028 19.5911L110.085 20.2085ZM55.7264 17.8376C51.1691 17.8134 47.9458 21.0923 47.9215 25.6039C47.8992 30.162 51.0759 33.3964 55.6797 33.4186C60.2836 33.4408 63.5069 30.2326 63.5292 25.6443C63.5536 21.1629 60.2593 17.8598 55.7264 17.8376ZM93.5548 27.1636C93.8812 29.256 95.8922 30.1156 97.8546 30.1398C98.8383 30.1312 99.8093 29.9175 100.705 29.5123C100.849 29.4539 100.989 29.3865 101.125 29.3105C101.593 29.0542 102.012 28.8928 102.434 29.3105C102.667 29.5425 102.878 29.7766 103.111 29.9844C103.331 30.1935 103.535 30.4195 103.719 30.6604C104.35 31.4493 103.906 31.6369 103.182 32.1252C101.639 33.1482 99.6305 33.6587 97.7836 33.6587C92.8311 33.6365 89.5591 30.6321 89.5591 25.6604C89.5834 20.9611 92.8534 17.8457 97.5728 17.8679C102.388 17.8921 105.12 20.7069 105.191 25.497C105.213 26.7984 105.26 27.2181 103.906 27.2181L93.5548 27.1636ZM55.7264 21.3485C58.0861 21.3485 59.6511 23.3965 59.6511 25.6523C59.6511 28.001 58.1793 29.8896 55.702 29.8896C53.2247 29.8896 51.7773 27.9828 51.7773 25.6342C51.7773 23.2855 53.2734 21.3485 55.7264 21.3485ZM93.6582 23.9312L101.416 23.9534C101.135 22.0224 99.523 21.2557 97.6782 21.2557C95.8334 21.2557 94.2319 22.1173 93.6582 23.9312Z" fill="#29303A"></path></svg>