<svg xmlns="http://www.w3.org/2000/svg" width="167" height="25" viewBox="0 0 167 25" fill="none"><path fill-rule="evenodd" clip-rule="evenodd" d="M4.04667 24.28V20.2333H22.2567V24.28H4.04667ZM18.3887 4.04667H7.91292L13.1517 11.2969L18.3887 4.04667ZM26.3033 0L13.1517 18.21L0 0H26.3033Z" fill="#00B3E6"></path><path d="M42.3546 20.235V13.7401H36.1261V20.235H32.3711V4.04837H36.1261V10.3831H42.3546V4.045H46.1095V20.2317L42.3546 20.235Z" fill="white"></path><path d="M50.8474 20.2351V4.04844H61.104V7.48979H54.6024V10.3832H60.5223V13.6525H54.6024V16.8106H61.104V20.2351H50.8474Z" fill="white"></path><path d="M65.5774 20.2351V4.04844H69.3306V16.814H75.8255V20.2385L65.5774 20.2351Z" fill="white"></path><path d="M78.9766 20.2351V4.04844H82.7367V16.814H89.2299V20.2385L78.9766 20.2351Z" fill="white"></path><path d="M99.822 20.4998C94.8075 20.4998 91.6055 16.9 91.6055 12.1502C91.6055 7.40044 94.9626 3.77868 99.9771 3.77868C104.992 3.77868 108.194 7.38021 108.194 12.1502C108.194 16.9202 104.815 20.4998 99.822 20.4998ZM99.8843 7.13741C97.3231 7.13741 95.5999 9.23493 95.5999 12.1502C95.5999 15.0655 97.3231 17.1647 99.8843 17.1647C102.446 17.1647 104.17 15.0436 104.17 12.1502C104.17 9.25685 102.451 7.13741 99.8843 7.13741Z" fill="white"></path><path d="M116.307 20.4998C114.474 20.4998 112.26 19.7714 110.853 18.8424L111.89 15.4415C113.193 16.3908 114.894 17.0096 116.418 17.0096C117.744 17.0096 118.251 16.3908 118.251 15.5966C118.251 14.7536 117.831 14.182 115.358 13.1889C112.508 12.0406 111.519 10.3832 111.519 8.43909C111.519 6.07853 113.439 3.77868 117.216 3.77868C118.983 3.77868 120.796 4.39748 121.745 5.0382L120.792 8.39525C119.863 7.75452 118.363 7.06996 117.213 7.06996C115.844 7.06996 115.292 7.71069 115.292 8.37333C115.292 9.43389 116.108 9.78797 118.142 10.6479C121.167 11.9293 122.072 13.3878 122.072 15.4634C122.072 18.0482 120.195 20.4998 116.307 20.4998Z" fill="white"></path><path d="M126.098 20.2351V4.04845H129.853V20.2351H126.098Z" fill="white"></path><path d="M148.573 11.1352V18.866C146.716 19.9677 144.59 20.5333 142.432 20.4998C137.684 20.4998 133.929 17.0989 133.929 12.1502C133.929 7.20148 137.728 3.77868 142.631 3.77868C144.752 3.77868 146.452 4.33172 148.063 5.1714L146.495 8.19628C145.38 7.60925 144.14 7.29872 142.88 7.29084C139.655 7.29084 137.933 9.30069 137.933 12.1502C137.933 15.2425 140.009 17.1647 142.654 17.1647C143.846 17.1647 144.443 17.0315 145.04 16.7229V14.3371H141.791V11.1335L148.573 11.1352Z" fill="white"></path><path d="M166.405 20.5437L156.642 11.7759V20.2351H152.887V3.82423L153.393 3.73486L163.024 12.4369V4.04511H166.779V20.4779L166.405 20.5437Z" fill="white"></path></svg>