<svg xmlns="http://www.w3.org/2000/svg" width="164" height="48" viewBox="0 0 164 48" fill="none"><path d="M163.857 21.8339V18.9522H160.278V14.4722L160.158 14.5093L156.797 15.5377L156.73 15.5579V18.9523H151.425V17.0613C151.425 16.1808 151.622 15.507 152.01 15.0576C152.395 14.6136 152.947 14.3879 153.65 14.3879C154.155 14.3879 154.678 14.507 155.205 14.7417L155.337 14.8007V11.7659L155.275 11.743C154.783 11.5665 154.115 11.4775 153.287 11.4775C152.243 11.4775 151.295 11.7047 150.468 12.1548C149.64 12.6056 148.989 13.2492 148.533 14.0674C148.079 14.8847 147.848 15.8286 147.848 16.8732V18.9522H145.356V21.8339H147.848V33.9739H151.425V21.8339H156.73V29.5486C156.73 32.726 158.229 34.3361 161.185 34.3361C161.67 34.3361 162.182 34.2792 162.704 34.1677C163.235 34.0533 163.597 33.939 163.81 33.817L163.857 33.7891V30.8807L163.711 30.977C163.517 31.1063 163.275 31.212 162.992 31.2907C162.707 31.3707 162.47 31.4108 162.285 31.4108C161.593 31.4108 161.081 31.2242 160.763 30.856C160.441 30.4845 160.278 29.8348 160.278 28.9259V21.8339H163.857ZM137.368 31.4113C136.07 31.4113 135.046 30.9808 134.325 30.1327C133.599 29.2804 133.231 28.0653 133.231 26.5214C133.231 24.9286 133.599 23.6819 134.325 22.8146C135.047 21.9529 136.061 21.5156 137.339 21.5156C138.579 21.5156 139.567 21.9332 140.274 22.7577C140.985 23.5863 141.345 24.823 141.345 26.4344C141.345 28.0656 141.006 29.3186 140.337 30.1568C139.673 30.9887 138.674 31.4113 137.368 31.4113ZM137.527 18.5903C135.05 18.5903 133.083 19.3161 131.68 20.7476C130.278 22.1793 129.567 24.1605 129.567 26.6367C129.567 28.9886 130.261 30.8804 131.63 32.2587C132.998 33.6374 134.861 34.3358 137.165 34.3358C139.566 34.3358 141.494 33.5998 142.896 32.1485C144.298 30.6988 145.009 28.7363 145.009 26.3179C145.009 23.9292 144.342 22.0233 143.027 20.6542C141.711 19.2846 139.861 18.5903 137.527 18.5903ZM123.8 18.5903C122.115 18.5903 120.721 19.0213 119.657 19.8711C118.585 20.7259 118.042 21.847 118.042 23.2037C118.042 23.9089 118.159 24.5353 118.39 25.0667C118.622 25.5997 118.982 26.0691 119.459 26.463C119.933 26.8537 120.664 27.2629 121.633 27.6793C122.448 28.0146 123.056 28.2982 123.442 28.5217C123.819 28.7407 124.087 28.9609 124.238 29.1754C124.385 29.3852 124.459 29.6724 124.459 30.0269C124.459 31.0361 123.703 31.5271 122.148 31.5271C121.572 31.5271 120.914 31.4067 120.193 31.1692C119.477 30.9354 118.802 30.5929 118.19 30.1538L118.042 30.0473V33.4912L118.096 33.5166C118.602 33.7502 119.24 33.9473 119.993 34.1023C120.743 34.2575 121.425 34.3364 122.018 34.3364C123.846 34.3364 125.319 33.9034 126.393 33.0485C127.474 32.1878 128.022 31.0402 128.022 29.6366C128.022 28.6241 127.727 27.7558 127.146 27.0555C126.568 26.3609 125.566 25.7232 124.168 25.1595C123.055 24.7125 122.341 24.3415 122.047 24.0566C121.763 23.7815 121.619 23.3923 121.619 22.8995C121.619 22.4627 121.797 22.1127 122.162 21.8293C122.53 21.5444 123.042 21.3996 123.684 21.3996C124.28 21.3996 124.89 21.4937 125.496 21.6782C126.102 21.8627 126.635 22.1098 127.079 22.4121L127.225 22.512V19.2451L127.169 19.221C126.759 19.0452 126.218 18.8948 125.562 18.7727C124.908 18.6515 124.316 18.5903 123.8 18.5903ZM108.717 31.4113C107.419 31.4113 106.395 30.9808 105.674 30.1327C104.948 29.2804 104.581 28.0656 104.581 26.5214C104.581 24.9286 104.948 23.6819 105.674 22.8146C106.396 21.9529 107.409 21.5156 108.688 21.5156C109.928 21.5156 110.915 21.9332 111.623 22.7577C112.334 23.5863 112.694 24.823 112.694 26.4344C112.694 28.0656 112.355 29.3186 111.686 30.1568C111.022 30.9887 110.023 31.4113 108.717 31.4113ZM108.876 18.5903C106.399 18.5903 104.431 19.3161 103.029 20.7476C101.627 22.1793 100.916 24.1605 100.916 26.6367C100.916 28.9896 101.61 30.8804 102.979 32.2587C104.347 33.6374 106.21 34.3358 108.514 34.3358C110.915 34.3358 112.843 33.5998 114.246 32.1485C115.647 30.6988 116.358 28.7363 116.358 26.3179C116.358 23.9292 115.691 22.0233 114.376 20.6542C113.06 19.2846 111.209 18.5903 108.876 18.5903ZM95.4861 21.5536V18.9522H91.9526V33.9736H95.4861V26.2895C95.4861 24.983 95.7823 23.9095 96.3669 23.0988C96.944 22.2977 97.7131 21.8917 98.6521 21.8917C98.9704 21.8917 99.3277 21.9442 99.7146 22.048C100.098 22.1512 100.375 22.2633 100.539 22.3812L100.687 22.4888V18.9265L100.63 18.9019C100.301 18.7621 99.8352 18.6916 99.2462 18.6916C98.3582 18.6916 97.5636 18.9769 96.883 19.5387C96.2856 20.0324 95.8538 20.7094 95.5236 21.5536H95.4861ZM85.6248 18.5903C84.0037 18.5903 82.5578 18.9379 81.3279 19.6231C80.0955 20.31 79.1424 21.2905 78.494 22.5373C77.8484 23.7811 77.5206 25.234 77.5206 26.8543C77.5206 28.2736 77.8384 29.5761 78.4665 30.724C79.095 31.8738 79.9846 32.7733 81.1106 33.3972C82.2351 34.0203 83.5347 34.3362 84.9736 34.3362C86.6529 34.3362 88.0866 34.0005 89.2361 33.3384L89.2825 33.3118V30.0746L89.134 30.183C88.6133 30.5623 88.0314 30.8651 87.4053 31.0832C86.7808 31.3011 86.2114 31.4113 85.7121 31.4113C84.3256 31.4113 83.2126 30.9774 82.4047 30.1221C81.595 29.2657 81.1845 28.0631 81.1845 26.5498C81.1845 25.027 81.6126 23.7935 82.4564 22.8834C83.2976 21.9759 84.4127 21.5156 85.7705 21.5156C86.9318 21.5156 88.0636 21.9088 89.1343 22.6855L89.2825 22.7932V19.3822L89.2346 19.3553C88.8317 19.1297 88.2822 18.9435 87.6 18.8022C86.9206 18.6613 86.2561 18.5903 85.6248 18.5903ZM75.087 18.9523H71.5535V33.9736H75.087V18.9523ZM73.3564 12.5532C72.7748 12.5532 72.2676 12.7512 71.8509 13.1435C71.4324 13.5369 71.2202 14.0322 71.2202 14.6168C71.2202 15.1922 71.4299 15.6785 71.8444 16.0615C72.2562 16.4433 72.765 16.6368 73.3565 16.6368C73.9479 16.6368 74.4586 16.4433 74.8754 16.0621C75.2948 15.6785 75.5075 15.1923 75.5075 14.6168C75.5075 14.0527 75.3005 13.5624 74.8926 13.1593C74.4851 12.757 73.9681 12.5532 73.3564 12.5532ZM64.5401 17.844V33.9736H68.1462V13.013H63.1552L56.8114 28.5819L50.6551 13.013H45.4609V33.9734H48.8497V17.8425H48.966L55.4669 33.9736H58.0243L64.4238 17.844H64.5401Z" fill="#706D6E"></path><path d="M16.6225 22.6313H0V6.00879H16.6225V22.6313Z" fill="#F1511B"></path><path d="M34.9737 22.6313H18.3516V6.00879H34.9737V22.6313Z" fill="#80CC28"></path><path d="M16.622 40.991H0V24.3687H16.622V40.991Z" fill="#00ADEF"></path><path d="M34.9737 40.991H18.3516V24.3687H34.9737V40.991Z" fill="#FBBC09"></path></svg>