<svg xmlns="http://www.w3.org/2000/svg" width="114" height="48" viewBox="0 0 114 48" fill="none"><g clip-path="url(#clip0_3615_2213)"><path fill-rule="evenodd" clip-rule="evenodd" d="M20.4454 12H3.19002C2.47719 12 1.79351 12.2829 1.28914 12.7867C0.784766 13.2904 0.500951 13.9737 0.500032 14.6865V31.9146C0.498319 32.268 0.566288 32.6184 0.700054 32.9456C0.833821 33.2728 1.03076 33.5704 1.27962 33.8214C1.52847 34.0724 1.82436 34.272 2.15038 34.4086C2.47639 34.5452 2.82613 34.6162 3.1796 34.6176H20.4476C20.8009 34.6172 21.1507 34.5472 21.477 34.4116C21.8032 34.2759 22.0996 34.0774 22.3491 33.8272C22.5986 33.5771 22.7964 33.2802 22.9312 32.9536C23.0659 32.627 23.135 32.277 23.1345 31.9237V14.6865C23.1336 13.9738 22.8499 13.2907 22.3457 12.787C21.8415 12.2833 21.1581 12.0002 20.4454 12V12ZM10.2621 28.2909C10.261 28.5294 10.1653 28.7576 9.99604 28.9256C9.82673 29.0935 9.59766 29.1873 9.35919 29.1864H5.58454C5.34775 29.1853 5.12104 29.0904 4.95397 28.9226C4.7869 28.7548 4.69305 28.5277 4.69294 28.2909V17.0689C4.69282 16.832 4.78659 16.6048 4.95371 16.4369C5.12084 16.2691 5.34768 16.1743 5.58454 16.1734H9.35572C9.59294 16.1743 9.82019 16.2689 9.98793 16.4367C10.1557 16.6044 10.2503 16.8317 10.2512 17.0689L10.2621 28.2909ZM18.9624 23.1383C18.9624 23.3758 18.8681 23.6036 18.7002 23.7716C18.5322 23.9396 18.3045 24.0341 18.0669 24.0342H14.2853C14.048 24.0333 13.8207 23.9386 13.653 23.7708C13.4852 23.6029 13.3906 23.3756 13.3898 23.1383V17.0689C13.3907 16.8317 13.4854 16.6044 13.6531 16.4367C13.8209 16.2689 14.0481 16.1743 14.2853 16.1734H18.0561C18.293 16.1742 18.52 16.2689 18.6872 16.4368C18.8544 16.6046 18.9482 16.8319 18.9481 17.0689L18.9624 23.1383Z" fill="url(#paint0_linear_3615_2213)"></path><path d="M47.398 13.6572V18.0311H42.2168V34.6178H37.2203V18.0311H32.0391V13.6572H47.398Z" fill="#293856"></path><path d="M53.7557 34.6177H49.1367V18.3017H53.7557V21.4255C54.6334 19.2245 56.0365 17.9155 58.5347 18.0752V22.9085C55.2712 22.6547 53.7557 23.4521 53.7557 26.0666V34.6177Z" fill="#293856"></path><path d="M83.7673 34.7447C80.7398 34.7447 78.8359 33.2943 78.8359 29.8641V12H83.4879V29.2246C83.4879 30.2142 84.1387 30.5661 84.9383 30.5661C85.1684 30.5705 85.3986 30.5595 85.6273 30.5331V34.5542C85.019 34.7031 84.3931 34.7672 83.7673 34.7447Z" fill="#293856"></path><path d="M93.4739 34.7447C90.4463 34.7447 88.5391 33.2943 88.5391 29.8641V12H93.191V29.2246C93.191 30.2142 93.847 30.5661 94.6592 30.5661C94.8882 30.571 95.1172 30.5599 95.3447 30.5331V34.5542C94.733 34.7044 94.1033 34.7685 93.4739 34.7447Z" fill="#293856"></path><path d="M97.5742 26.4528C97.5742 21.413 100.475 17.9646 105.471 17.9646C110.466 17.9646 113.307 21.4017 113.307 26.4528C113.307 31.5039 110.435 35 105.471 35C100.508 35 97.5742 31.4596 97.5742 26.4528ZM102.103 26.4528C102.103 28.9072 103.133 30.8544 105.471 30.8544C107.81 30.8544 108.782 28.9072 108.782 26.4528C108.782 23.9984 107.784 22.1015 105.471 22.1015C103.159 22.1015 102.103 23.9945 102.103 26.4528Z" fill="#293856"></path><path d="M64.7683 27.928C66.0617 28.0699 67.3615 28.1461 68.6627 28.1562C72.2013 28.1562 75.189 27.2064 75.189 23.7802C75.189 20.455 72.118 17.9568 68.4232 17.9568C63.4489 17.9568 60.2617 21.5648 60.2617 26.6047C60.2617 31.8367 63.0098 34.9436 69.2211 34.9436C71.0636 34.9587 72.893 34.6318 74.6163 33.9796V30.0708C73.0209 30.5819 71.226 31.0896 69.3842 31.0896C66.9112 31.09 65.1874 30.2774 64.7683 27.928ZM68.3291 21.5175C69.638 21.5175 70.6893 22.4057 70.6893 23.6205C70.6893 25.1824 69.0406 25.6727 67.1398 25.6727C66.3312 25.6688 65.524 25.6046 64.7249 25.4805C64.7853 24.7186 65.0038 23.9777 65.3666 23.3051C65.6579 22.7722 66.0859 22.3265 66.6066 22.0139C67.1273 21.7013 67.7218 21.5329 68.3291 21.5262V21.5175Z" fill="#293856"></path></g><defs><linearGradient id="paint0_linear_3615_2213" x1="11.8162" y1="34.6176" x2="11.8162" y2="12" gradientUnits="userSpaceOnUse"><stop stop-color="#0052CC"></stop><stop offset="1" stop-color="#2684FF"></stop></linearGradient><clipPath id="clip0_3615_2213"><rect width="113" height="48" fill="white" transform="translate(0.5)"></rect></clipPath></defs></svg>