<svg xmlns="http://www.w3.org/2000/svg" width="164" height="44" viewBox="0 0 164 44" fill="none"><g clip-path="url(#clip0_3615_2447)"><path d="M158.3 12.3505H157.581C157.538 12.3505 157.496 12.3082 157.496 12.2553V11.8746C157.496 11.8218 157.538 11.79 157.581 11.79H159.632C159.674 11.79 159.717 11.8218 159.717 11.8746V12.2553C159.717 12.3082 159.674 12.3505 159.632 12.3505H158.913V14.9728C158.913 15.0151 158.871 15.0574 158.828 15.0574H158.384C158.342 15.0574 158.3 15.0151 158.3 14.9728V12.3505Z" fill="#2A276E"></path><path d="M160.787 11.8108C160.787 11.7685 160.829 11.7368 160.872 11.7368H160.946C160.977 11.7368 161.009 11.758 161.02 11.7897L162.056 13.989H162.066L163.092 11.7791C163.113 11.7474 163.145 11.7368 163.177 11.7368H163.251C163.293 11.7368 163.335 11.7685 163.335 11.8108L163.896 14.9513C163.906 14.9936 163.885 15.0358 163.843 15.057C163.829 15.057 163.818 15.057 163.811 15.057H163.378C163.335 15.057 163.304 15.0253 163.293 14.983L163.018 13.2172H163.007L162.183 15.057C162.172 15.0887 162.14 15.1099 162.109 15.1099H162.024C161.982 15.1099 161.95 15.0887 161.94 15.057L161.115 13.2172H161.104L160.829 14.983C160.819 15.0253 160.787 15.057 160.745 15.057H160.322C160.279 15.0676 160.237 15.0358 160.227 14.983C160.227 14.9759 160.227 14.9654 160.227 14.9513L160.787 11.8108Z" fill="#2A276E"></path><path d="M155.911 26.1387C155.911 29.0359 153.415 31.7005 149.45 31.7005C145.908 31.7005 143.825 30.0405 143.265 29.5118C143.011 29.258 142.873 29.1205 143.127 28.6659L144.132 26.9318C144.153 26.9106 144.17 26.8859 144.185 26.8577C144.407 26.5722 144.819 26.5194 145.104 26.7414C145.231 26.8154 147.515 28.4755 149.334 28.4755C150.804 28.4755 151.893 27.5239 151.893 26.3185C151.893 24.8804 150.687 23.9076 148.329 22.9454C145.686 21.8775 143.043 20.1857 143.043 16.876C143.043 14.3701 144.893 11.4834 149.366 11.4834C152.231 11.4834 154.431 12.9426 154.991 13.3655C155.276 13.5876 155.35 13.9894 155.16 14.296L154.092 15.8927C153.86 16.231 153.447 16.4637 153.109 16.231C152.876 16.0936 150.74 14.6978 149.197 14.6978C147.6 14.6978 146.722 15.7552 146.722 16.6646C146.722 17.9757 147.769 18.8745 150.042 19.805C152.77 20.9047 155.921 22.533 155.911 26.1387Z" fill="#2A276E"></path><path d="M138.495 12.3078V31.4359H135.344C135.048 31.4253 134.815 31.1927 134.805 30.8966V11.7686H137.956C138.252 11.7791 138.484 12.0118 138.495 12.3078Z" fill="#2A276E"></path><path fill-rule="evenodd" clip-rule="evenodd" d="M130.481 31.4254H126.621C126.431 31.436 126.251 31.3408 126.167 31.1716L122.423 23.7277H119.304V31.436H116.185C115.889 31.436 115.656 31.1928 115.656 30.8967V11.7687H124.232C127.584 11.7475 130.333 14.4544 130.354 17.8063C130.354 20.4075 128.641 22.5011 126.198 23.4845L130.481 31.4254ZM126.695 17.8698C126.695 16.3789 125.405 15.1417 123.914 15.1417H119.336V20.7247H123.914C125.405 20.7247 126.706 19.4347 126.695 17.8698Z" fill="#2A276E"></path><path fill-rule="evenodd" clip-rule="evenodd" d="M99.4574 31.4357H96.2006C95.7777 31.4357 95.5768 31.256 95.3865 30.8753L94.0119 27.8406H85.6057L84.2311 30.8753C84.1042 31.2243 83.7764 31.4463 83.4169 31.4357H80.1602L89.2325 11.8001C89.3171 11.6098 89.5074 11.4829 89.7083 11.4935H90.0044C90.2159 11.4724 90.4062 11.5992 90.4802 11.8001L99.4574 31.4357ZM92.6478 24.7214L89.8352 18.5357H89.7506L86.9908 24.7214H92.6478Z" fill="#2A276E"></path><path d="M111.499 11.7686C111.795 11.7686 112.038 12.0118 112.028 12.3078V15.1416H107.196V31.4359H104.055C103.759 31.4253 103.526 31.1927 103.516 30.8966V15.1416H99.2123C98.9162 15.1416 98.6836 14.8984 98.6836 14.6129V11.7686H111.499Z" fill="#2A276E"></path><path d="M77.3789 12.3078V31.4359H74.2279C73.9424 31.4253 73.7098 31.1927 73.6992 30.8966V11.7686H76.8396C77.1357 11.7791 77.3683 12.0118 77.3789 12.3078Z" fill="#2A276E"></path><path d="M70.2101 11.6733L61.159 31.3195C61.0744 31.5098 60.884 31.6261 60.6831 31.6261H60.3976C60.1862 31.6261 59.9958 31.5098 59.9218 31.3195L50.9023 11.6733H54.582C54.7829 11.6733 54.9733 11.8002 55.0579 11.9906L60.4505 24.0659H60.6408L66.0335 11.9906C66.1181 11.8002 66.3084 11.6733 66.5199 11.6733H70.2101Z" fill="#2A276E"></path><path d="M30.4422 30.7065C30.4633 30.7277 30.4633 30.7594 30.4422 30.7911C23.8229 42.6338 14.2854 41.4495 11.4516 40.7305C11.1238 40.6459 10.8171 40.519 10.5422 40.3393C0.497093 34.3122 -2.94997 21.4121 2.73874 11.1767C2.74932 11.1555 2.77047 11.1449 2.79161 11.1555C2.81276 11.1555 2.84448 11.1872 2.83391 11.2084C0.592257 22.3743 15.4062 42.3166 30.3576 30.7065C30.3787 30.6854 30.4104 30.6854 30.4422 30.7065Z" fill="#703E97"></path><path d="M25.1756 9.72811C25.1756 9.70696 25.1967 9.67524 25.2284 9.67524C38.8052 9.47434 42.5378 18.3246 43.3414 21.1373C43.426 21.4545 43.4789 21.7823 43.4683 22.1101C43.2568 33.8153 33.8144 43.2366 22.0986 43.448C22.0774 43.448 22.0457 43.4375 22.0457 43.4057C22.0351 43.374 22.0563 43.3529 22.088 43.3423C32.8733 39.7049 42.7387 16.9183 25.2073 9.78098C25.1967 9.7704 25.1756 9.74926 25.1756 9.72811Z" fill="#F1CB14"></path><path d="M9.62062 24.7429C9.5889 24.764 9.55718 24.7534 9.5466 24.7323C2.57845 13.0799 8.38348 5.42448 10.4242 3.33087C10.6463 3.08767 10.9106 2.88676 11.1961 2.72816C21.4527 -2.93941 34.3528 0.518228 40.3799 10.5528C40.401 10.5845 40.401 10.6162 40.3799 10.6374C40.3481 10.648 40.3164 10.648 40.2953 10.6268C31.7516 3.09824 7.05118 5.95317 9.64177 24.69C9.64177 24.7111 9.64177 24.7323 9.62062 24.7429Z" fill="#2A276E"></path><path fill-rule="evenodd" clip-rule="evenodd" d="M30.8318 17.4786C32.0689 20.122 32.0901 23.1779 30.8952 25.8425C30.8741 25.8848 30.8529 25.9306 30.8318 25.9799C30.7155 26.2337 30.5886 26.4875 30.4511 26.7307C30.43 26.7659 30.4053 26.8047 30.3771 26.847C29.5206 28.2956 28.3047 29.5116 26.856 30.3681C22.0767 33.2018 15.9016 31.6263 13.0784 26.847C13.0502 26.8047 13.0255 26.7659 13.0043 26.7307C12.8774 26.4875 12.74 26.2337 12.6237 25.9799C12.6025 25.9306 12.5814 25.8848 12.5602 25.8425C11.3654 23.1779 11.3865 20.122 12.6237 17.4786C12.6343 17.4363 12.6554 17.4046 12.6765 17.3623C12.8034 17.1014 12.9374 16.8512 13.0784 16.6115L13.1629 16.4741C13.9877 15.1206 15.1297 13.9892 16.4831 13.1539C21.2202 10.2566 27.4059 11.7476 30.3031 16.4741L30.3877 16.6115C30.5357 16.8512 30.6697 17.1014 30.7895 17.3623C30.8107 17.4046 30.8318 17.4363 30.8424 17.4786H30.8318ZM29.8061 17.3623H26.4437L26.4754 17.4786C26.7609 18.684 26.9301 19.9211 26.9512 21.1583H30.8952C30.8212 19.8788 30.4723 18.6205 29.8802 17.4786L29.8061 17.3623ZM26.063 22.0465H22.1613V25.8425H25.6083C25.8938 24.6265 26.0419 23.3999 26.063 22.1522C26.063 22.1205 26.063 22.0676 26.063 22.0465ZM21.2942 25.8425V22.0465H17.3925C17.3925 22.0817 17.3925 22.117 17.3925 22.1522C17.4136 23.3999 17.5722 24.6265 17.8471 25.8425H21.2942ZM17.403 21.1583H21.2942V17.3623H17.9106C17.9035 17.3975 17.893 17.4363 17.8789 17.4786C17.5934 18.684 17.4242 19.9211 17.403 21.1583ZM22.1613 17.3623V21.1583H26.063C26.0313 19.9211 25.8727 18.684 25.5766 17.4786C25.5696 17.4363 25.559 17.3975 25.5449 17.3623H22.1613ZM24.35 12.9318C24.3359 12.9318 24.3254 12.9354 24.3183 12.9424C24.2972 12.953 24.2972 12.9741 24.3183 12.9953C25.0796 13.8306 25.7246 15.036 26.1899 16.4741H29.2563C28.072 14.7822 26.3379 13.524 24.35 12.9318ZM22.2036 12.5935C22.1824 12.5935 22.1613 12.6146 22.1613 12.6358V16.4741H25.2911C24.5932 14.3593 23.4936 12.9001 22.2247 12.5935C22.2177 12.5935 22.2106 12.5935 22.2036 12.5935ZM21.2942 12.6358C21.2942 12.6358 21.2942 12.6322 21.2942 12.6252C21.2836 12.604 21.2625 12.5829 21.2413 12.5935C19.9725 12.9001 18.8622 14.3593 18.1644 16.4741H21.2942V12.6358ZM19.1477 12.953C19.1477 12.9318 19.1266 12.9213 19.1054 12.9318C17.1176 13.524 15.394 14.7717 14.1992 16.4741H17.2762C17.7308 15.036 18.3758 13.8306 19.1477 12.9953C19.1548 12.9812 19.1548 12.9671 19.1477 12.953ZM12.5708 21.1583H16.5148C16.5466 19.9211 16.7157 18.684 17.0012 17.468L17.0224 17.3623H13.6705L13.5965 17.468C13.0043 18.61 12.6448 19.8683 12.5708 21.1583ZM12.5602 22.1522C12.6237 23.4422 12.9515 24.6899 13.5225 25.8425H16.9695C16.6946 24.6265 16.536 23.3999 16.5148 22.1522V22.0465H12.5708C12.5708 22.0817 12.5708 22.117 12.5708 22.1522H12.5602ZM14.03 26.7307C15.2248 28.5494 17.0224 29.8922 19.116 30.5161C19.1231 30.5231 19.1336 30.5231 19.1477 30.5161C19.1583 30.4949 19.1583 30.4738 19.1477 30.4632C18.3547 29.5962 17.6991 28.3485 17.2339 26.847L17.2021 26.7307H14.03ZM21.2942 26.7307H18.0903C18.7776 28.9723 19.9196 30.5478 21.2413 30.8545C21.2413 30.8615 21.2449 30.865 21.2519 30.865C21.2731 30.8545 21.2942 30.8333 21.2942 30.8122V26.7307ZM22.2141 30.865C23.5359 30.5478 24.6778 28.9723 25.3651 26.7307H22.1613V30.8227C22.1613 30.8227 22.1648 30.8263 22.1718 30.8333C22.1718 30.8545 22.2036 30.8756 22.2247 30.865H22.2141ZM29.4255 26.7307H26.2639L26.2322 26.847C25.7669 28.3485 25.1008 29.5962 24.3183 30.4632C24.3042 30.4773 24.3007 30.4914 24.3078 30.5055C24.3078 30.5161 24.3289 30.5267 24.35 30.5267C26.4437 29.9028 28.2412 28.5599 29.4255 26.7307ZM30.8952 22.1628C30.8952 22.1311 30.8952 22.0782 30.8952 22.0465H26.9512V22.1628C26.9301 23.3999 26.782 24.637 26.4965 25.8425H29.933C30.5146 24.7005 30.8424 23.4422 30.8952 22.1628Z" fill="#2A276E"></path></g><defs><clipPath id="clip0_3615_2447"><rect width="164" height="43.4584" fill="white"></rect></clipPath></defs></svg>