<svg xmlns="http://www.w3.org/2000/svg" width="180" height="43" viewBox="0 0 180 43" fill="none"><path fill-rule="evenodd" clip-rule="evenodd" d="M54.542 31.3793C53.8831 31.1282 53.4517 30.5963 53.4517 29.8871C53.4517 29.0288 54.1609 28.3211 55.0237 28.3211C55.2778 28.3211 55.4817 28.3713 55.659 28.4467C56.8356 28.9892 58.1174 29.2657 59.4131 29.2563C62.0532 29.2563 63.2957 27.9931 63.2957 25.5642V24.9068C62.1537 26.2734 60.9112 27.1081 58.8561 27.1081C55.6841 27.1081 52.8164 24.8063 52.8164 20.7848V20.736C52.8164 16.6894 55.7343 14.4142 58.8561 14.4142C60.9614 14.4142 62.2039 15.3006 63.244 16.4382V16.4116C63.244 15.3745 64.1068 14.5161 65.1735 14.5161C66.2373 14.5161 67.1001 15.3745 67.1001 16.4367V25.1609C67.1001 27.5883 66.518 29.3568 65.3759 30.4944C64.1068 31.7605 62.1537 32.316 59.515 32.316C57.8121 32.331 56.1228 32.0128 54.542 31.3793V31.3793ZM63.2957 20.7863V20.736C63.2957 18.8893 61.8479 17.5995 59.9715 17.5995C58.0952 17.5995 56.6739 18.8893 56.6739 20.736V20.7863C56.6739 22.6567 58.0952 23.9213 59.9715 23.9213C61.8479 23.9213 63.2957 22.6316 63.2957 20.7863V20.7863ZM69.2837 16.4367C69.2837 15.3745 70.1465 14.5161 71.2117 14.5161C72.2784 14.5161 73.1398 15.3745 73.1398 16.4367V17.0425C73.6982 15.7291 74.6113 14.5161 75.7548 14.5161C76.9471 14.5161 77.6311 15.2991 77.6311 16.3865C77.6311 17.3971 76.9722 18.0043 76.1847 18.1816C74.2316 18.6381 73.1412 20.1288 73.1412 22.8591V26.4492C73.1412 27.5115 72.2784 28.3713 71.2117 28.3713C70.959 28.3719 70.7086 28.3227 70.4749 28.2264C70.2412 28.1302 70.0288 27.9889 69.8497 27.8105C69.6707 27.6322 69.5285 27.4203 69.4314 27.1869C69.3343 26.9536 69.2841 26.7034 69.2837 26.4507V16.4367V16.4367ZM77.1746 24.3262V24.2759C77.1746 21.3167 79.4321 19.9515 82.6558 19.9515C84.0254 19.9515 85.0152 20.179 85.98 20.507V20.2795C85.98 18.6883 84.9901 17.8019 83.0621 17.8019C82.1595 17.7922 81.2608 17.9203 80.3968 18.1816C80.2185 18.2477 80.03 18.2822 79.8398 18.2835C79.6313 18.2874 79.4241 18.2498 79.2303 18.1727C79.0365 18.0956 78.8601 17.9806 78.7112 17.8345C78.5624 17.6885 78.4442 17.5142 78.3635 17.3218C78.2828 17.1295 78.2412 16.9231 78.2413 16.7145C78.2413 16.0319 78.6697 15.4513 79.2814 15.2223C80.4988 14.7673 81.8181 14.5161 83.6191 14.5161C85.7244 14.5161 87.2476 15.0716 88.2109 16.0319C89.2259 17.0425 89.6839 18.5362 89.6839 20.3563V26.5245C89.6839 27.5617 88.8462 28.3713 87.8061 28.3713C86.6891 28.3713 85.9534 27.5883 85.9534 26.7787V26.7521C85.0152 27.7892 83.7225 28.4718 81.8432 28.4718C79.2814 28.4718 77.1746 27.0062 77.1746 24.3262V24.3262ZM86.0302 23.4397V22.7586C85.2547 22.4178 84.4159 22.2451 83.5688 22.2519C81.9186 22.2519 80.9051 22.9093 80.9051 24.1237V24.174C80.9051 25.2111 81.7679 25.8183 83.0104 25.8183C84.8128 25.8183 86.0302 24.8314 86.0302 23.4397ZM91.739 16.4367C91.739 15.3745 92.6018 14.5161 93.6685 14.5161C94.7337 14.5161 95.5965 15.3745 95.5965 16.4367V16.5889C96.4829 15.4513 97.6516 14.4142 99.6047 14.4142C101.381 14.4142 102.725 15.1972 103.436 16.5638C104.628 15.1736 106.051 14.4142 107.9 14.4142C110.768 14.4142 112.495 16.1339 112.495 19.396V26.4492C112.495 27.5115 111.631 28.3713 110.566 28.3713C110.313 28.3719 110.062 28.3227 109.829 28.2265C109.595 28.1303 109.382 27.989 109.203 27.8106C109.024 27.6323 108.882 27.4204 108.784 27.187C108.687 26.9537 108.637 26.7035 108.636 26.4507V20.6592C108.636 18.839 107.824 17.9038 106.379 17.9038C104.932 17.9038 104.044 18.839 104.044 20.6592V26.4507C104.044 27.5115 103.183 28.3713 102.116 28.3713C101.606 28.3721 101.116 28.1702 100.755 27.8101C100.393 27.4499 100.189 26.961 100.188 26.4507V20.6592C100.188 18.839 99.3757 17.9038 97.9308 17.9038C96.4829 17.9038 95.5965 18.839 95.5965 20.6592V26.4507C95.5965 27.5115 94.7337 28.3713 93.6685 28.3713C93.4156 28.3721 93.1651 28.323 92.9312 28.2269C92.6973 28.1307 92.4847 27.9894 92.3055 27.811C92.1263 27.6327 91.984 27.4207 91.8868 27.1873C91.7896 26.9538 91.7393 26.7035 91.739 26.4507V16.4367V16.4367ZM114.575 16.4367C114.575 15.3745 115.438 14.5161 116.503 14.5161C117.57 14.5161 118.433 15.3745 118.433 16.4367V16.5889C119.319 15.4513 120.487 14.4142 122.441 14.4142C124.217 14.4142 125.561 15.1972 126.272 16.5638C127.464 15.1736 128.886 14.4142 130.737 14.4142C133.605 14.4142 135.33 16.1339 135.33 19.396V26.4492C135.33 27.5115 134.467 28.3713 133.401 28.3713C132.89 28.3721 132.401 28.1702 132.039 27.8101C131.678 27.4499 131.474 26.961 131.473 26.4507V20.6592C131.473 18.839 130.66 17.9038 129.215 17.9038C127.767 17.9038 126.881 18.839 126.881 20.6592V26.4507C126.881 27.5115 126.018 28.3713 124.953 28.3713C124.7 28.3719 124.45 28.3227 124.216 28.2264C123.982 28.1302 123.77 27.9889 123.591 27.8105C123.412 27.6322 123.27 27.4203 123.172 27.1869C123.075 26.9536 123.025 26.7034 123.025 26.4507V20.6592C123.025 18.839 122.212 17.9038 120.766 17.9038C119.319 17.9038 118.431 18.839 118.431 20.6592V26.4507C118.431 27.5115 117.57 28.3713 116.503 28.3713C116.251 28.3719 116 28.3227 115.767 28.2264C115.533 28.1302 115.32 27.9889 115.141 27.8105C114.962 27.6322 114.82 27.4203 114.723 27.1869C114.626 26.9536 114.576 26.7034 114.575 26.4507V16.4367V16.4367ZM136.599 24.3262V24.2759C136.599 21.3167 138.858 19.9515 142.08 19.9515C143.212 19.9413 144.337 20.1293 145.403 20.507V20.2795C145.403 18.6883 144.413 17.8019 142.485 17.8019C141.42 17.8019 140.557 17.9541 139.821 18.1816C139.643 18.2477 139.455 18.2822 139.265 18.2835C139.056 18.2878 138.848 18.2504 138.654 18.1735C138.46 18.0966 138.284 17.9817 138.134 17.8355C137.985 17.6894 137.867 17.5149 137.786 17.3224C137.706 17.1299 137.664 16.9232 137.664 16.7145C137.664 16.0319 138.097 15.4513 138.705 15.2223C139.923 14.7673 141.243 14.5161 143.044 14.5161C145.151 14.5161 146.672 15.0716 147.636 16.0319C148.651 17.0425 149.107 18.5362 149.107 20.3563V26.5245C149.107 26.7696 149.058 27.0122 148.964 27.2382C148.869 27.4642 148.73 27.6691 148.556 27.841C148.381 28.0129 148.174 28.1483 147.947 28.2393C147.719 28.3304 147.476 28.3752 147.231 28.3713C146.114 28.3713 145.378 27.5883 145.378 26.7787V26.7521C144.44 27.7892 143.144 28.4718 141.268 28.4718C138.705 28.4718 136.599 27.0062 136.599 24.3262V24.3262ZM145.455 23.4397V22.7586C144.679 22.4179 143.841 22.2452 142.994 22.2519C141.343 22.2519 140.33 22.9093 140.33 24.1237V24.174C140.33 25.2111 141.191 25.8183 142.435 25.8183C144.236 25.8183 145.455 24.8314 145.455 23.4397ZM151.164 16.4367C151.164 15.3745 152.026 14.5161 153.092 14.5161C154.158 14.5161 155.02 15.3745 155.02 16.4367V17.0425C155.578 15.7291 156.491 14.5161 157.635 14.5161C158.826 14.5161 159.511 15.2991 159.511 16.3865C159.511 17.3971 158.851 18.0043 158.065 18.1816C156.111 18.6381 155.02 20.1288 155.02 22.8591V26.4492C155.02 27.5115 154.158 28.3713 153.092 28.3713C152.581 28.3721 152.092 28.1702 151.73 27.8101C151.369 27.4499 151.165 26.961 151.164 26.4507V16.4367V16.4367ZM160.678 11.5317C160.678 10.468 161.541 9.61108 162.606 9.61108C163.673 9.61108 164.536 10.468 164.536 11.5317V26.4492C164.536 27.5115 163.673 28.3713 162.606 28.3713C162.096 28.3721 161.606 28.1702 161.245 27.8101C160.883 27.4499 160.679 26.961 160.678 26.4507V11.5302V11.5317ZM167.606 31.9866C167.047 31.7856 166.387 31.3291 166.387 30.3954C166.383 30.192 166.419 29.9898 166.493 29.8005C166.568 29.6112 166.679 29.4385 166.821 29.2926C166.962 29.1466 167.132 29.0302 167.319 28.9502C167.506 28.8702 167.707 28.8281 167.91 28.8264C168.214 28.8264 168.392 28.8766 168.544 28.9283C168.873 29.0288 169.077 29.0805 169.357 29.0805C170.041 29.0805 170.372 28.9534 170.726 28.2709L170.853 27.9665L166.211 17.2464C166.095 16.9641 166.026 16.6646 166.007 16.3599C166.007 15.274 166.845 14.5161 167.91 14.5161C168.873 14.5161 169.432 15.0465 169.761 15.9566L172.706 23.846L175.547 15.9817C175.851 15.1736 176.408 14.5161 177.4 14.5161C178.388 14.5161 179.224 15.274 179.224 16.2861C179.224 16.5889 179.124 17.0189 179.048 17.1961L174.303 28.5486C173.161 31.304 172.02 32.3411 169.711 32.3411C168.848 32.3411 168.24 32.2156 167.606 31.9866Z" fill="white"></path><path fill-rule="evenodd" clip-rule="evenodd" d="M42.1448 21.428C42.1448 33.0257 32.71 42.428 21.0724 42.428C9.43478 42.428 0 33.0257 0 21.428C0 9.83026 9.43478 0.427979 21.0724 0.427979C32.71 0.427979 42.1448 9.83026 42.1448 21.428Z" fill="#15C39A"></path><path fill-rule="evenodd" clip-rule="evenodd" d="M23.8262 25.963C23.9503 26.65 24.5989 27.1213 25.3007 27.1213H27.5079L28.7874 26.944C26.7397 29.9372 23.185 31.3142 19.2979 30.707C16.1333 30.212 13.4148 28.0772 12.2669 25.0972C9.66369 18.3321 14.6204 11.8743 21.0812 11.8743C24.4482 11.8743 27.4001 13.8378 29.0932 16.2091C29.5423 16.8547 30.4347 17.0911 31.0833 16.6434C31.3779 16.4439 31.5857 16.1399 31.6647 15.7929C31.7437 15.4459 31.688 15.0819 31.5088 14.7745C30.3088 12.9057 28.628 11.3943 26.6428 10.3987C24.6576 9.40314 22.4411 8.96007 20.2257 9.11599C14.0649 9.52819 9.07863 14.5529 8.72405 20.696C8.31333 27.8467 14.0029 33.6825 21.0812 33.6825C22.8461 33.6898 24.5917 33.3162 26.1991 32.5872C27.8064 31.8583 29.2375 30.7911 30.3948 29.4585L30.1259 30.9566V32.31C30.1259 33.0073 30.5987 33.6544 31.2886 33.7785C31.4946 33.8173 31.7066 33.8103 31.9096 33.758C32.1126 33.7057 32.3016 33.6094 32.4632 33.4758C32.6247 33.3423 32.755 33.1749 32.8446 32.9854C32.9342 32.7959 32.981 32.589 32.9817 32.3794V24.2743H25.2297C25.02 24.274 24.8128 24.3199 24.6229 24.4088C24.433 24.4977 24.265 24.6274 24.131 24.7887C23.997 24.95 23.9002 25.1388 23.8475 25.3418C23.7948 25.5448 23.7875 25.7569 23.8262 25.963Z" fill="white"></path></svg>