<svg xmlns="http://www.w3.org/2000/svg" width="100" height="48" viewBox="0 0 100 48" fill="none"><path fill-rule="evenodd" clip-rule="evenodd" d="M22.3987 41.6001C24.3152 40.4106 25.926 38.959 27.2888 37.4474C28.2645 39.44 30.2225 40.8001 32.2988 40.8001C33.8988 40.8001 35.4988 40.0001 36.5988 38.5001C36.9988 39.9001 37.9988 40.8001 39.6988 40.8001C40.9745 40.8001 43.7557 39.4982 46.2775 37.569L45.9987 39.0001C45.8987 39.4001 45.8987 39.7001 45.8987 39.9001C45.9987 40.5001 46.3987 40.8001 46.9987 40.8001C48.1987 40.8001 49.8987 39.7001 50.2987 37.9001L50.8987 35.4001C51.5987 32.2001 56.2987 27.4001 57.5987 27.4001C57.6987 27.4001 57.8987 27.5001 57.8987 27.7001C57.9384 28.0176 57.7103 28.6187 57.3769 29.497C56.8704 30.8318 56.1208 32.8068 55.6987 35.4001C55.4987 36.2001 55.4987 37.0001 55.5987 37.6001C55.7987 39.5001 56.8987 40.8001 58.9987 40.8001C60.7958 40.8001 64.6921 39.2661 67.423 36.198C67.6288 37.8634 67.9811 39.2799 68.4987 40.2001C68.6987 40.6001 69.1987 40.7001 69.6987 40.7001C70.2987 40.7001 71.0987 40.5001 71.9987 40.0001C74.0987 38.9001 76.7987 36.3001 79.3987 32.5001C79.7987 32.6001 80.0987 32.6001 80.3987 32.6001C81.4364 32.6001 82.596 32.2339 83.6727 31.586C83.2253 32.9373 83.0508 34.3174 83.1988 35.6001C83.5988 38.6001 86.0988 40.9001 88.7988 40.9001C90.2988 40.9001 91.8988 40.0001 92.9988 38.6001C93.3988 40.5001 94.5988 42.5001 97.5988 43.7001C97.7988 43.8001 97.9988 43.8001 98.1988 43.8001C98.7988 43.8001 99.1988 43.4001 99.0988 42.9001C99.0988 42.7001 98.9988 42.4001 98.6988 42.2001C97.9988 41.6001 97.1988 40.5001 96.9988 38.8001C96.8988 38.0001 96.8988 37.0001 97.3988 36.0001C97.9988 33.3001 98.0988 32.5001 98.0988 32.2001C97.9988 31.5001 97.4988 31.2001 96.8988 31.2001C95.6988 31.2001 93.9988 32.4001 93.5988 34.1001C92.8988 36.7001 91.0988 38.4001 89.8988 38.4001C88.3988 38.4001 87.5988 36.8001 87.3988 35.1001C86.8988 30.9001 89.4988 25.8001 93.3988 25.8001C94.4988 25.8001 95.7988 26.2001 95.8988 27.4001C96.0217 28.5061 95.3517 28.7815 94.84 28.9918C94.519 29.1238 94.2602 29.2302 94.2988 29.5001C94.3988 30.3001 95.6988 30.5001 96.5988 30.5001C97.3988 30.5001 99.9988 29.9001 99.5988 27.0001C99.2988 24.7001 96.7988 23.6001 93.9988 23.6001C90.6562 23.6001 87.8115 25.2925 85.8742 27.6344C85.6063 27.7926 85.3236 28.0752 84.9987 28.4001C84.3987 29.1001 83.1987 29.8001 81.6987 29.8001C81.4987 29.8001 81.0987 29.7001 81.0987 29.7001C82.0987 27.8001 82.7987 25.8001 82.7987 24.1001C82.7987 21.3001 81.0987 19.9001 79.1987 19.9001C76.7987 19.9001 74.2987 22.0001 74.2987 26.2001C74.2987 28.7001 75.2987 30.7001 76.9987 31.8001C74.9987 35.0001 72.2987 37.7001 71.8987 37.7001C71.7607 37.7001 71.7179 37.5571 71.6718 37.4028C71.6511 37.3336 71.6297 37.2621 71.5987 37.2001C71.2987 36.1001 70.9987 33.9001 70.9987 32.6001C70.9987 30.2001 71.3987 27.8001 72.2987 25.3001C72.3987 25.0001 72.4987 24.7001 72.4987 24.5001C72.4987 23.8001 71.9987 23.5001 71.3987 23.5001C70.1987 23.5001 68.2987 24.9001 67.7987 26.4001C67.3987 27.8001 67.1987 29.8001 67.1987 32.2001C67.1987 32.6403 67.2058 33.0769 67.2203 33.5068C64.8338 36.7239 61.8889 37.8001 60.9987 37.8001C59.8987 37.8001 59.6987 36.8001 59.8987 36.4001C60.5987 33.5001 61.4987 30.2001 62.2987 27.9001C62.6987 26.8001 62.8987 25.8001 62.7987 25.2001C62.5987 24.1001 61.8987 23.6001 60.8987 23.6001C58.4987 23.6001 54.6987 26.0001 52.1987 29.3001L52.9987 25.7001C53.0987 25.3001 53.0987 25.0001 53.0987 24.8001C52.9987 24.1001 52.5987 23.8001 51.9987 23.8001C49.1987 23.8001 48.6987 25.2001 48.3987 26.6001C48.3408 26.9476 47.5449 31.0518 46.8853 34.4447C44.7514 36.4031 42.3604 37.7001 41.6988 37.7001C40.8988 37.7001 40.5988 37.1001 40.5988 36.6001C40.5988 36.2548 40.7975 35.3132 40.9853 34.4236C41.1238 33.7676 41.2563 33.1397 41.2988 32.8001C41.3988 32.4001 41.3988 32.1001 41.3988 31.9001C41.2988 31.3001 40.7988 31.0001 40.1988 31.0001C38.9988 31.0001 37.2988 32.2001 36.8988 33.9001C36.2988 36.5001 34.4988 38.2001 33.2988 38.2001C31.7988 38.2001 30.9988 36.6001 30.7988 35.0001C30.2988 31.4001 32.5988 25.6001 36.7988 25.6001C37.9988 25.6001 39.1988 26.0001 39.2988 27.2001C39.4199 28.3506 38.8078 28.6211 38.3281 28.8331C38.0156 28.9713 37.7593 29.0845 37.7988 29.4001C37.8988 30.2001 39.1988 30.4001 39.9988 30.4001C40.8988 30.4001 43.3988 29.8001 42.9988 26.9001C42.6988 24.6001 40.2988 23.4001 37.3988 23.4001C30.673 23.4001 26.1972 30.0526 26.681 35.3262C24.9729 37.325 23.2664 38.5269 20.1987 40.1001C18.4987 41.0001 16.4987 41.5001 14.6987 41.5001C9.09874 41.5001 6.39874 36.4001 5.89874 32.0001C4.49873 20.8001 14.4987 5.3001 21.3987 5.3001C22.9987 5.3001 24.3987 6.7001 24.6987 8.9001C25.0987 12.3001 24.9987 14.7001 21.4987 17.6001C21.0987 17.9001 20.9987 18.4001 21.1987 18.7001C21.4987 19.1001 22.4987 19.2001 24.3987 18.2001C28.1987 16.3001 29.4987 13.4001 29.0987 10.0001C28.6987 6.2001 25.3987 3.1001 20.9987 3.1001C18.7987 3.1001 16.4987 3.7001 14.3987 5.0001C5.29873 10.6001 -0.601265 23.2001 0.498735 32.8001C0.898735 35.9001 2.19874 39.2001 4.59874 41.5001C6.19874 43.0001 9.09874 44.8001 12.5987 44.8001C16.3987 44.8001 19.5987 43.4001 22.3987 41.6001ZM78.5987 28.4001C77.5987 27.3001 76.7987 25.6001 76.7987 24.0001C76.7987 23.1001 77.0987 22.1001 77.7987 22.1001C78.3987 22.1001 79.1987 23.0001 79.1987 25.1001C79.1987 26.2001 78.9987 27.3001 78.5987 28.4001Z" fill="#24BECA"></path></svg>