<svg xmlns="http://www.w3.org/2000/svg" width="118" height="48" viewBox="0 0 118 48" fill="none"><g clip-path="url(#clip0_3615_2330)"><path d="M36.1711 20.6688H25.4521L34.7348 15.3372L32.894 12.1638L23.6101 17.4955L28.9684 8.26132L25.7792 6.42965L20.4197 15.6615V5.00049H16.7357V15.6627L11.3762 6.42965L8.18587 8.26132L13.5442 17.4932L4.26268 12.1638L2.42069 15.3372L11.7034 20.6688H0.984375V24.3333H11.7022L2.42069 29.665L4.26151 32.8383L13.5454 27.5067L8.18587 36.7408L11.3751 38.5725L16.7357 29.3395V40.0005H20.4197V29.1108L25.8777 38.5142L28.8688 36.7968L23.4096 27.3912L32.8916 32.8372L34.7336 29.6638L25.4521 24.3322H36.1699V20.6688H36.1711ZM18.5777 27.4822C17.9201 27.4822 17.2689 27.3534 16.6613 27.1031C16.0537 26.8527 15.5016 26.4858 15.0366 26.0231C14.5715 25.5605 14.2026 25.0112 13.9508 24.4067C13.6991 23.8022 13.5695 23.1543 13.5694 22.4999C13.5693 21.8456 13.6988 21.1976 13.9504 20.593C14.202 19.9884 14.5708 19.4391 15.0357 18.9763C15.5007 18.5136 16.0527 18.1465 16.6602 17.896C17.2678 17.6455 17.9189 17.5166 18.5766 17.5165C19.9047 17.5163 21.1785 18.0412 22.1177 18.9755C23.057 19.9099 23.5847 21.1772 23.5849 22.4987C23.585 23.8203 23.0576 25.0877 22.1186 26.0223C21.1795 26.9569 19.9059 27.482 18.5777 27.4822Z" fill="white"></path><path d="M45.668 35.3021V9.69849H50.3908V35.3021H45.668ZM90.9652 17.9025H95.4746V20.0258C96.4337 18.3283 98.672 17.4078 100.589 17.4078C102.969 17.4078 104.886 18.4345 105.774 20.307C107.157 18.1837 109.005 17.4078 111.314 17.4078C114.545 17.4078 117.634 19.3527 117.634 24.0205V35.3021H113.054V24.976C113.054 23.1012 112.13 21.686 109.963 21.686C107.938 21.686 106.731 23.2435 106.731 25.1183V35.3033H102.045V24.976C102.045 23.1012 101.086 21.686 98.9546 21.686C96.8945 21.686 95.6868 23.2085 95.6868 25.1183V35.3033H90.9652V17.9025ZM61.0641 35.8062C55.7433 35.8062 51.8904 31.878 51.8904 26.6023C51.8904 21.4107 55.7315 17.3903 61.0641 17.3903C66.4224 17.3903 70.2377 21.448 70.2377 26.6023C70.2377 31.8407 66.3825 35.8062 61.0641 35.8062ZM61.0641 21.6487C59.7443 21.6505 58.4792 22.1732 57.5463 23.1021C56.6134 24.0311 56.0889 25.2903 56.088 26.6035C56.0889 27.9167 56.6134 29.1759 57.5463 30.1048C58.4792 31.0337 59.7443 31.5565 61.0641 31.5583C62.3836 31.5562 63.6485 31.0333 64.5811 30.1044C65.5138 29.1755 66.0381 27.9165 66.039 26.6035C66.0381 25.2905 65.5138 24.0314 64.5811 23.1026C63.6485 22.1737 62.3836 21.6508 61.0641 21.6487ZM80.3247 35.8062C75.0039 35.8062 71.1511 31.878 71.1511 26.6023C71.1511 21.4107 74.9922 17.3903 80.3247 17.3903C85.6831 17.3903 89.4984 21.448 89.4984 26.6023C89.4984 31.8407 85.6408 35.8062 80.3247 35.8062ZM80.3247 21.5892C78.9898 21.5913 77.7102 22.1202 76.7666 23.0597C75.823 23.9993 75.2924 25.2729 75.2912 26.6011C75.2924 27.9294 75.823 29.203 76.7666 30.1426C77.7102 31.0821 78.9898 31.611 80.3247 31.6131C81.6596 31.611 82.9392 31.0821 83.8828 30.1426C84.8264 29.203 85.357 27.9294 85.3583 26.6011C85.357 25.2729 84.8264 23.9993 83.8828 23.0597C82.9392 22.1202 81.6596 21.5913 80.3247 21.5892Z" fill="white"></path></g><defs><clipPath id="clip0_3615_2330"><rect width="117" height="48" fill="white" transform="translate(0.984375)"></rect></clipPath></defs></svg>