<svg xmlns="http://www.w3.org/2000/svg" width="113" height="48" viewBox="0 0 113 48" fill="none"><path d="M29.3789 33.987V12.0316H32.79V20.6873C33.8642 19.0874 35.4754 18.2871 37.6234 18.2865C39.4556 18.2865 40.8719 18.8288 41.8724 19.9133C42.8729 20.9979 43.3732 22.509 43.3733 24.4466V33.987H39.9621V24.9205C39.9621 22.4146 38.8458 21.1615 36.6133 21.1611C35.4968 21.1611 34.5808 21.4981 33.8651 22.172C33.1495 22.846 32.7912 23.7937 32.7906 25.0152V33.9867L29.3789 33.987Z" fill="#323232"></path><path d="M59.4947 32.092C57.9784 33.6084 56.0726 34.3665 53.777 34.3665C51.4815 34.3665 49.5703 33.6084 48.0432 32.092C46.5163 30.5756 45.7528 28.6483 45.753 26.3101C45.7531 23.972 46.5165 22.0503 48.0432 20.5452C49.5701 19.0397 51.4813 18.2868 53.777 18.2865C56.0727 18.2861 57.9786 19.0391 59.4947 20.5452C61.0113 22.0512 61.7695 23.9729 61.7694 26.3101C61.7693 28.6473 61.0111 30.5746 59.4947 32.092ZM50.539 30.1648C51.3492 31.1124 52.4286 31.5864 53.777 31.5864C55.1255 31.5864 56.2048 31.1124 57.015 30.1648C57.8254 29.2171 58.2308 27.9322 58.2312 26.3101C58.2312 24.7097 57.8206 23.4356 56.9993 22.4877C56.178 21.5399 55.1039 21.066 53.777 21.0661C52.429 21.0661 51.3496 21.5347 50.539 22.4718C49.7284 23.409 49.323 24.6882 49.3227 26.3094C49.3227 27.9322 49.7281 29.2173 50.539 30.1648Z" fill="#323232"></path><path d="M69.6655 34.366C66.5272 34.366 64.9581 32.6811 64.9581 29.3114V21.5403H62.5894V18.6657H65.0534L65.8433 14.1491H68.4017V18.6657H74.4986V21.5403H68.4019V29.2168C68.4019 30.628 68.9179 31.3336 69.9498 31.3335C70.9183 31.3335 71.7923 30.4488 72.5718 28.6797L75.2255 30.0382C73.9194 32.9237 72.0661 34.3663 69.6655 34.366Z" fill="#323232"></path><path d="M76.3222 41C74.8059 41 73.5527 40.5788 72.563 39.7364L73.8267 37.0512C74.4376 37.7669 75.101 38.125 75.8169 38.1258C76.7645 38.1258 77.2383 37.5151 77.2383 36.2936V18.6656H80.6495V36.3559C80.6495 37.9986 80.2441 39.1833 79.4332 39.9097C78.6224 40.6363 77.5854 40.9997 76.3222 41ZM78.9442 16.075C78.3834 16.0941 77.8379 15.8896 77.4278 15.5065C77.2305 15.3206 77.0751 15.0949 76.9717 14.8444C76.8683 14.5939 76.8192 14.3243 76.8278 14.0534C76.8202 13.7803 76.8697 13.5086 76.973 13.2556C77.0763 13.0027 77.2312 12.7741 77.4278 12.5844C77.8402 12.2084 78.3782 12 78.9363 12C79.4943 12 80.0324 12.2084 80.4448 12.5844C80.6455 12.7717 80.8043 12.9995 80.9105 13.2528C81.0166 13.506 81.0679 13.7789 81.0608 14.0534C81.0658 14.3229 81.0134 14.5904 80.9072 14.8382C80.801 15.086 80.6435 15.3084 80.4448 15.4907C80.2454 15.6821 80.0103 15.8322 79.7528 15.9325C79.4953 16.0328 79.2205 16.0812 78.9442 16.075Z" fill="#323232"></path><path d="M89.1224 34.3661C87.3741 34.3661 85.9577 33.9291 84.8735 33.0552C83.7891 32.1812 83.2469 31.0074 83.2467 29.5336C83.2467 28.1859 83.81 27.0431 84.9368 26.1054C86.0634 25.1677 87.4797 24.6991 89.1855 24.6997C90.9336 24.6997 92.4079 25.2578 93.6083 26.3741V24.51C93.6083 23.4152 93.3291 22.5676 92.771 21.967C92.2128 21.3664 91.4178 21.0662 90.3861 21.0666C88.3011 21.0666 87.0059 22.1301 86.5004 24.2571L83.3728 23.5938C83.7936 21.9512 84.6255 20.656 85.8686 19.7082C87.1118 18.7605 88.6597 18.2866 90.5123 18.2866C92.5343 18.2866 94.1297 18.8184 95.2984 19.8821C96.4671 20.9457 97.0514 22.4988 97.0517 24.5414V33.9871H93.7345V32.0598C92.618 33.5975 91.0807 34.3664 89.1224 34.3661ZM89.7534 31.8389C91.27 31.8389 92.5548 31.0808 93.6081 29.5646V29.0902C92.5547 27.8266 91.2699 27.1948 89.7534 27.1949C88.869 27.1949 88.1528 27.411 87.6044 27.8431C87.3452 28.034 87.1355 28.2841 86.9926 28.5727C86.8497 28.8611 86.7779 29.1796 86.783 29.5014C86.7746 29.8267 86.8434 30.1493 86.9833 30.443C87.1234 30.7367 87.3308 30.9932 87.5887 31.1915C88.1269 31.6232 88.848 31.839 89.7534 31.8389Z" fill="#323232"></path><path d="M100.371 33.987V18.6656H103.688V21.3192C104.53 19.3817 105.983 18.4129 108.048 18.4128C109.269 18.4128 110.28 18.813 111.08 19.6132C111.881 20.4135 112.281 21.4876 112.28 22.8354C112.272 23.6421 112.133 24.4422 111.87 25.2047L108.742 24.8888C108.806 24.4701 108.849 24.0484 108.868 23.6253C108.868 22.0458 108.216 21.256 106.91 21.2559C106.025 21.2559 105.283 21.7245 104.683 22.6616C104.083 23.5988 103.783 24.8361 103.782 26.3737V33.987H100.371Z" fill="#323232"></path><path d="M8.07188 21.0097C10.6142 19.5973 14.0962 17.6625 14.0962 12.0315H9.87997C9.87997 15.1821 8.34614 16.0342 6.02431 17.3241C3.48197 18.737 0 20.671 0 26.3026H4.21623C4.21623 23.1518 5.75006 22.2997 8.07188 21.0097Z" fill="#FF3C00"></path><path d="M15.3692 19.7157C15.3692 22.8664 13.8354 23.7185 11.5136 25.0083C8.9719 26.4207 5.48926 28.3552 5.48926 33.9867H9.70531C9.70531 30.8359 11.2391 29.9838 13.561 28.6939C16.1033 27.2815 19.5851 25.3472 19.5851 19.7157H15.3692Z" fill="#FF3C00"></path></svg>