<svg xmlns="http://www.w3.org/2000/svg" id="Layer_1" data-name="Layer 1" viewBox="0 0 130.64 130.72"><defs><style>.cls-1{fill:#18649c;}</style></defs><path class="cls-1" d="M396,485.37V551.5a5.33,5.33,0,0,0-.22.71,7.59,7.59,0,0,1-8,6.43H273.42c-4.79,0-8.09-3.17-8.1-7.94q0-32.22,0-64.45a7.69,7.69,0,0,1,2.33-5.75,8.35,8.35,0,0,1,6.18-2.2H387.4a13.29,13.29,0,0,1,1.78.11,7.59,7.59,0,0,1,6.51,6C395.76,484.72,395.86,485,396,485.37Zm-104.73,32h0c2.42,0,4.85,0,7.27,0a6,6,0,0,0,6.08-5.56,123.54,123.54,0,0,0,0-12.62,6,6,0,0,0-6.14-5.63q-7.21-.09-14.42,0a6.25,6.25,0,0,0-6.27,6.38q0,5.47,0,11a6.32,6.32,0,0,0,6.45,6.47C286.54,517.36,288.88,517.33,291.22,517.33ZM277.29,542h18.78v-7.5H277.29Zm48.1-7.49h-18.8V542h18.8ZM335.8,542h18.77v-7.49H335.8Zm29.32-7.53V542h18.75v-7.5Z" transform="translate(-265.3 -427.92)"></path><path class="cls-1" d="M347.69,427.92a13.32,13.32,0,0,1,5.67,3.92c4.74,4.82,9.55,9.59,14.33,14.37a2.18,2.18,0,0,1,.2.29c-.19.23-.37.5-.59.74q-10.64,11.28-21.3,22.54a2.84,2.84,0,0,1-1.82.85q-21.26.08-42.5,0c-.32,0-.64-.05-1.17-.1.47-.5.79-.87,1.14-1.22q18.81-18.81,37.62-37.65a12.84,12.84,0,0,1,5.62-3.78Z" transform="translate(-265.3 -427.92)"></path><path class="cls-1" d="M373.27,452.06l6.06,6.07c-1.29,1.38-2.64,2.84-4,4.28-2.33,2.48-4.64,5-7,7.4a2.93,2.93,0,0,1-1.83.82c-3.44.08-6.88,0-10.73,0C361.74,464.29,367.51,458.16,373.27,452.06Z" transform="translate(-265.3 -427.92)"></path><path class="cls-1" d="M392.07,470.88H378.43l-.12-.48,6.48-6.89Z" transform="translate(-265.3 -427.92)"></path><path class="cls-1" d="M285.5,501.17H297v8.44H285.5Z" transform="translate(-265.3 -427.92)"></path></svg>