<svg xmlns="http://www.w3.org/2000/svg" id="Layer_1" data-name="Layer 1" viewBox="0 0 268.47 286"><defs><style>.cls-1{fill:#16659c;}</style></defs><text x="-163.07" y="-278"></text><path class="cls-1" d="M224.67,387.87c-7.62,0-15.07.06-22.51,0-5.65-.07-9-3.73-8.43-9,.33-2.88,2.1-4.71,4.47-6.18q25.77-16,51.49-32c18.66-11.59,37.36-23.13,56-34.82,4.69-2.95,9-3,13.7-.11q53.67,33.46,107.41,66.8c4.17,2.6,5.52,5.64,4.41,9.54s-3.86,5.71-8.83,5.73c-7,0-13.94,0-20.91.05a6.83,6.83,0,0,0-1,.23v3q0,17.52,0,35a11.57,11.57,0,0,1-.1,2.64c-.47,2-1.62,3.33-3.85,3.37s-3.46-1.25-4-3.23a11.89,11.89,0,0,1-.14-2.93c0-12.56,0-25.11,0-37.91h-12v37.74a20.45,20.45,0,0,1,0,2.35c-.28,2.3-1.39,3.87-3.9,4-2.29.1-3.9-1.49-4.12-4.06-.08-1,0-2,0-2.94V388.13H351.1v37.34c0,.78,0,1.57,0,2.35-.13,2.92-1.54,4.5-4,4.36-2.66-.14-3.78-1.75-3.78-4.29q0-4.26,0-8.54V388H331.22c-.05,1-.14,2.07-.14,3.1q0,18,0,35.93c0,2.08-.25,4-2.45,4.89-2.78,1.15-5.34-.81-5.36-4.2-.06-7.07,0-14.14,0-21.21V388.11H302v37.08c0,.69,0,1.37,0,2.06-.07,3.27-1.53,5-4.14,4.94-2.44-.06-3.9-1.78-3.91-4.87,0-10.7,0-21.4,0-32.1v-7.17H282.17v80.47c.6.2,1.48.22,1.83.66,1,1.27,2.71,2.9,2.47,4-.29,1.39-2.1,3-3.58,3.48-1.87.61-4.08.2-6.14.2-19.34,0-38.69,0-58-.06-2.58,0-3.51.91-3.41,3.44.13,3.63.15,7.27,0,10.89-.11,2.71.94,3.58,3.62,3.57,20.12-.08,40.25-.05,60.38-.05.79,0,1.58,0,2.36,0,3.18.06,5.1,1.61,5.06,4.07s-1.89,4-4.89,4c-21.41,0-42.81.08-64.22,0-6.17,0-10.25-4.41-10.31-10.53q-.08-6.48,0-13a10.11,10.11,0,0,1,10.13-10.41c2.35-.09,4.7,0,7.24,0Zm-22.26-8.26H422.78c-1-.7-1.52-1.1-2.08-1.45Q368,345.4,315.33,312.61c-2.06-1.28-3.59-1.16-5.59.09q-52.26,32.6-104.6,65.07C204.36,378.25,203.61,378.79,202.41,379.61ZM253,388v80.62h20.72V388Zm-8.24,80.68V388.11h-11.8v80.57Z" transform="translate(-163.07 -278)"></path><path class="cls-1" d="M163.07,420.71v-116c0-15.92,10.64-26.63,26.53-26.65q50.52,0,101,0c8.55,0,15.65,3.22,20.89,10.13,1.84,2.42,1.77,4.78-.1,6.27s-4.11,1.19-6.06-1.3A17.5,17.5,0,0,0,290.29,286a35.41,35.41,0,0,1-6.18,0c-3.57-.53-5.33.94-6.24,4.31a47.81,47.81,0,0,1-2.93,7.36c-2.36,5.09-6.32,7.88-12,7.89q-22.68,0-45.37,0c-5.71,0-9.67-2.85-12-7.94-1.46-3.21-2.63-6.54-4-9.77-.3-.7-1.07-1.7-1.62-1.7-5.28,0-10.67-.32-15.83.57-7.42,1.28-12.38,7.63-12.94,15.16-.09,1.27-.11,2.55-.11,3.82q0,115.29,0,230.59a27.63,27.63,0,0,0,1.17,8.66,16.37,16.37,0,0,0,15.58,11q52,.06,104,0A17,17,0,0,0,308,543.57a16.44,16.44,0,0,1,.6-2,3.63,3.63,0,0,1,4.81-2.21c2.19.69,3,2.38,2.66,4.6-1.59,9.36-10.53,18-20.12,19.48a38.27,38.27,0,0,1-5.85.49q-50.22,0-100.45,0c-13.8,0-23.86-8.21-26.24-21.37a30,30,0,0,1-.28-5.28Q163.07,479,163.07,420.71Zm46.48-134.49c1.06,2.71,2.07,5.23,3,7.77a5.44,5.44,0,0,0,5.42,3.77c14.82,0,29.65.1,44.47-.11a6.71,6.71,0,0,0,4.78-2.67c1.64-2.57,2.49-5.65,3.76-8.76Z" transform="translate(-163.07 -278)"></path><path class="cls-1" d="M361.69,438.76c18.55,0,37.1.16,55.64-.09,6.62-.08,12.25,3.82,12.14,12.1-.32,22.56-.11,45.13-.12,67.69,0,7.32-3.9,11.3-11.24,11.31q-56.39,0-112.75,0c-7.39,0-11.4-4.13-11.4-11.56q0-34,0-68c0-7.37,4.1-11.45,11.5-11.46ZM302,482.94c0,11.81,0,23.28,0,34.76,0,3.86.18,4.06,4,4.06H417.32c3.83,0,4.17-.33,4.18-4.2q0-15.9,0-31.8c0-.93-.1-1.86-.15-2.82Zm.17-8.33H421.11V462.73H302.19Zm119.09-20.16c.75-7.53.68-7.61-6.43-7.61H308.59c-7,0-6.64-.93-6.54,6.7a4.49,4.49,0,0,0,.26.91Z" transform="translate(-163.07 -278)"></path><path class="cls-1" d="M239.86,548.21H205.44c-.88,0-2,.32-2.59-.12-1.26-1-3-2.3-3.09-3.58s1.4-2.91,2.61-3.89c.75-.62,2.25-.41,3.41-.41q34,0,68,0c4.33,0,6.34,1.24,6.45,3.93s-2,4.09-6.5,4.09Z" transform="translate(-163.07 -278)"></path><path class="cls-1" d="M295.59,343.13a16.81,16.81,0,0,1,16.83-17.07,17.07,17.07,0,0,1,17.27,16.76,17.37,17.37,0,0,1-17.11,17.35A17.11,17.11,0,0,1,295.59,343.13Zm26-.21a9.08,9.08,0,1,0-9,9.2A9,9,0,0,0,321.62,342.92Z" transform="translate(-163.07 -278)"></path><path class="cls-1" d="M307.31,502.81a15.16,15.16,0,0,1,15.38-15.22,15.29,15.29,0,1,1-.12,30.58A15.21,15.21,0,0,1,307.31,502.81Zm22.54,0a7.16,7.16,0,0,0-7.31-7.23,7.3,7.3,0,1,0,.14,14.59A7.14,7.14,0,0,0,329.85,502.8Z" transform="translate(-163.07 -278)"></path><path class="cls-1" d="M384.89,512.85c-7.84,0-15.68,0-23.52,0-3.51,0-5.31-1.43-5.24-4.08.07-2.5,1.84-3.9,5.18-3.91q23.51,0,47,0c3.5,0,5.3,1.49,5.23,4.14s-1.77,3.85-5.17,3.85C400.56,512.86,392.72,512.85,384.89,512.85Z" transform="translate(-163.07 -278)"></path><path class="cls-1" d="M385,489.93c7.86,0,15.71,0,23.57,0,3.35,0,5.06,1.36,5,3.94s-1.65,3.92-4.82,3.92q-23.87.06-47.72,0c-3.52,0-5.38-1.89-4.81-4.72.51-2.47,2.27-3.17,4.59-3.16C368.86,490,376.91,489.93,385,489.93Z" transform="translate(-163.07 -278)"></path></svg>