<svg xmlns="http://www.w3.org/2000/svg" id="Layer_1" data-name="Layer 1" viewBox="0 0 137.42 144.33"><defs><style>.cls-1{fill:#16659c;}</style></defs><text x="-228" y="-349.5"></text><path class="cls-1" d="M264,393.78c10.17-5.87,20.28-11.65,30.32-17.55a4.19,4.19,0,0,1,4.84,0c10,5.89,20.14,11.68,30.25,17.52a8.4,8.4,0,0,1,7.56-2,8.18,8.18,0,0,1,6.27,6.8,8.08,8.08,0,0,1-4.61,8.55,1.73,1.73,0,0,0-1.17,1.91c0,11.28,0,22.56,0,33.85a3.93,3.93,0,0,1-2.25,3.87c-9.79,5.58-19.52,11.25-29.29,16.86a1.72,1.72,0,0,0-1.1,2.07,8.18,8.18,0,0,1-16.1,2.61,6.25,6.25,0,0,1-.19-2.67c.25-1.12-.23-1.5-1.05-2-9.81-5.63-19.58-11.33-29.41-16.93a3.88,3.88,0,0,1-2.2-3.77c.06-11.28,0-22.56.05-33.84a1.83,1.83,0,0,0-1.24-2,8.18,8.18,0,1,1,8.29-14C263.33,393.27,263.63,393.51,264,393.78Zm62.85,6c.87-1.82-.46-2.42-1.76-3.17q-13.59-7.8-27.15-15.69a2.12,2.12,0,0,0-2.45,0c-8.78,5.12-17.57,10.24-26.43,15.24-1.85,1-3.09,2-2.7,4.4a2.15,2.15,0,0,0,1.1,1.87q10.83,6.19,21.6,12.47a1.4,1.4,0,0,0,1.87-.09,8.92,8.92,0,0,1,11.55,0,1.4,1.4,0,0,0,1.86.12c7-4.06,14-8.12,21-12.12C326.53,402.08,327.58,401.46,326.86,399.77Zm-35.94,60.52c1-.58,1.89-1,2.68-1.61a1.85,1.85,0,0,0,.8-1.22c.05-8.52,0-17,.05-25.55a1.21,1.21,0,0,0-.92-1.33,9,9,0,0,1-5.91-9.94,1.6,1.6,0,0,0-1-1.88q-10-5.68-19.87-11.47c-1.67-1-3.21-2-4.93-.17a.42.42,0,0,1-.25.12c-.79.17-1,.66-1,1.44,0,11,0,22.08.05,33.11a2,2,0,0,0,.78,1.44C271.26,449,281.09,454.61,290.92,460.29Zm11.45,0c.18-.08.32-.12.44-.19q14.55-8.4,29.13-16.78c.86-.49.86-1.12.86-1.89,0-10.18,0-20.36,0-30.54,0-1.94.15-3.79-2.29-4.38a.26.26,0,0,1-.12-.09c-.66-.79-1.3-.55-2.09-.1q-10.71,6.24-21.47,12.4a1.69,1.69,0,0,0-1,2,8.9,8.9,0,0,1-5.58,9.72,1.73,1.73,0,0,0-1.26,2c0,7.76.07,15.51,0,23.26,0,1.72,0,3.18,2,3.69C301.47,459.47,301.85,459.93,302.37,460.3ZM301.31,422a4.6,4.6,0,1,0-4.66,4.55A4.62,4.62,0,0,0,301.31,422Zm-39.43-22.26a3.58,3.58,0,1,0-7.16,0,3.58,3.58,0,0,0,7.16,0Zm73.3,3.54a3.54,3.54,0,0,0,3.54-3.51,3.58,3.58,0,1,0-7.16,0A3.54,3.54,0,0,0,335.18,403.28Zm-38.39,66.56a3.46,3.46,0,0,0,3.47-3.57,3.54,3.54,0,1,0-7.08.14A3.45,3.45,0,0,0,296.79,469.84Z" transform="translate(-228 -349.5)"></path><path class="cls-1" d="M238.52,437.6c4.69,2.34,6.65,5.72,5.71,9.73a8.12,8.12,0,0,1-8,6.46,8.24,8.24,0,0,1-8-6.29c-.94-4.17,1-7.56,5.68-9.88V436c0-15.89,0-31.79,0-47.68a4,4,0,0,1,2.22-3.89q20.9-12,41.74-24.05c.65-.38,1.18-.61,1-1.69A8.18,8.18,0,0,1,294,353.47a8.19,8.19,0,0,1-1.27,10.09,8.08,8.08,0,0,1-10.21,1,2.05,2.05,0,0,0-2.62-.08q-20,11.6-40,23.09a2.43,2.43,0,0,0-1.4,2.45q.06,23.06,0,46.11ZM287,361.26a3.48,3.48,0,0,0,3.53-3.48,3.59,3.59,0,0,0-3.53-3.67,3.67,3.67,0,0,0-3.58,3.53A3.57,3.57,0,0,0,287,361.26Zm-54.28,84.36a3.58,3.58,0,0,0,3.49,3.58,3.71,3.71,0,0,0,3.65-3.61,3.59,3.59,0,0,0-3.68-3.54A3.49,3.49,0,0,0,232.69,445.62Z" transform="translate(-228 -349.5)"></path><path class="cls-1" d="M339.29,463.06c-.07-4.59,3-8.28,7-8.68a8.18,8.18,0,0,1,3.06,16.06,7.54,7.54,0,0,1-6.63-1.3,1.6,1.6,0,0,0-2.12-.05C326.85,477.07,313,485,299.29,493a4.42,4.42,0,0,1-5.08,0c-16.14-9.42-32.33-18.72-48.51-28.07a6.11,6.11,0,0,1-1.3-.86,2.27,2.27,0,0,1,2.37-3.76,10.77,10.77,0,0,1,1.39.72q23.64,13.65,47.27,27.32a2.22,2.22,0,0,0,2.58,0q19.85-11.54,39.75-23C338.83,464.82,340,464.33,339.29,463.06Zm11.72-.62a3.56,3.56,0,0,0-3.53-3.52,3.64,3.64,0,0,0-3.63,3.62,3.68,3.68,0,0,0,3.57,3.54A3.6,3.6,0,0,0,351,462.44Z" transform="translate(-228 -349.5)"></path><path class="cls-1" d="M354.92,420.55c0-8.05,0-16.09,0-24.14a1.86,1.86,0,0,0-1.23-2.05,7.77,7.77,0,0,1-4.63-8.09,1.68,1.68,0,0,0-1.1-1.94q-20.76-12-41.49-23.95c-.37-.21-.76-.41-1.11-.64a2.3,2.3,0,1,1,2.36-3.94c2.82,1.58,5.61,3.21,8.4,4.83q17.17,9.9,34.32,19.83a1.52,1.52,0,0,0,2-.09,8.16,8.16,0,1,1,8.11,14.07c-1,.44-1,1-1,1.87q0,24.13,0,48.27a5.78,5.78,0,0,1-.26,1.95A2.25,2.25,0,0,1,355,446a11.56,11.56,0,0,1-.06-1.56ZM360.74,387a3.44,3.44,0,0,0-3.5-3.5,3.57,3.57,0,0,0-3.63,3.58,3.69,3.69,0,0,0,3.56,3.55A3.57,3.57,0,0,0,360.74,387Z" transform="translate(-228 -349.5)"></path><path class="cls-1" d="M329,431.23c0,2.52,0,5,0,7.56a2.73,2.73,0,0,1-1.5,2.68c-4.41,2.53-8.8,5.08-13.21,7.61-1.54.88-2.89.63-3.6-.61s-.25-2.48,1.32-3.4c3.78-2.19,7.55-4.4,11.37-6.53a1.86,1.86,0,0,0,1.07-1.91c-.05-4.37,0-8.75,0-13.13,0-1.67.86-2.72,2.21-2.77s2.34,1.06,2.35,2.79Z" transform="translate(-228 -349.5)"></path></svg>