<svg xmlns="http://www.w3.org/2000/svg" id="Layer_1" data-name="Layer 1" viewBox="0 0 150.09 150.08"><defs><style>.cls-1{fill:#18649c;}</style></defs><path class="cls-1" d="M318.16,529.28a55.94,55.94,0,0,1-.71,6c-2.1,9.11-9.61,15-19.27,15-16.09,0-32.18,0-48.27,0-5,0-9.92.09-14.88-.06a19,19,0,0,1-18.26-18.3q0-.9,0-1.8,0-54.88,0-109.77c0-7.67,3.06-13.59,9.65-17.57a16.81,16.81,0,0,1,8.7-2.5q19-.06,38-.05,12.44,0,24.87,0c11.88,0,20,8.19,20.06,20,0,7.19,0,14.39,0,21.84h2c11.45,0,22.9,0,34.36,0,6.24,0,11,3.83,12.26,9.7a16.13,16.13,0,0,1,.25,3.41q0,30.51,0,61c0,8-5,13.07-13.05,13.08q-16.85,0-33.7,0Zm-91-54.17v55.12c0,6,3.49,9.51,9.56,9.51H298c6,0,9.52-3.54,9.52-9.57q0-55,0-109.93c0-6-3.5-9.59-9.5-9.59q-30.68,0-61.35,0a11.78,11.78,0,0,0-2.91.28c-4.11,1.06-6.5,4.39-6.5,9Q227.21,447.55,227.21,475.11ZM318,518.8h35.52c2.49,0,2.78-.3,2.78-2.86q0-18.57,0-37.13c0-.58-.05-1.16-.07-1.79H318Zm38.31-52.43c0-3.77,0-7.41,0-11.05,0-2.5-.29-2.78-2.86-2.78H318.05v13.84Z" transform="translate(-216.72 -400.17)"></path><path class="cls-1" d="M267.4,417.6h27.15c3.87,0,6,2.08,6,6q0,15,0,29.93c0,4-2.07,6-6.1,6H240.27c-4.09,0-6.1-2-6.1-6.13q0-14.81,0-29.61c0-4.21,2-6.15,6.23-6.15ZM290,428.18H244.76V448.9H290Z" transform="translate(-216.72 -400.17)"></path><path class="cls-1" d="M267.28,517.09a7,7,0,1,1-6.92,7A7,7,0,0,1,267.28,517.09Z" transform="translate(-216.72 -400.17)"></path><path class="cls-1" d="M291.78,482.14a6.94,6.94,0,1,1,6.93-6.95A6.86,6.86,0,0,1,291.78,482.14Z" transform="translate(-216.72 -400.17)"></path><path class="cls-1" d="M267.26,506.61a7,7,0,0,1,.06-14,7,7,0,1,1-.06,14Z" transform="translate(-216.72 -400.17)"></path><path class="cls-1" d="M249.87,499.69a7,7,0,0,1-14,0,7,7,0,1,1,14,0Z" transform="translate(-216.72 -400.17)"></path><path class="cls-1" d="M242.91,517.09a7,7,0,0,1,.05,14,7,7,0,1,1-.05-14Z" transform="translate(-216.72 -400.17)"></path><path class="cls-1" d="M243,482.14a6.95,6.95,0,1,1,6.89-7A7,7,0,0,1,243,482.14Z" transform="translate(-216.72 -400.17)"></path><path class="cls-1" d="M298.72,499.65a6.95,6.95,0,1,1-6.93-7A6.94,6.94,0,0,1,298.72,499.65Z" transform="translate(-216.72 -400.17)"></path><path class="cls-1" d="M267.35,482.14a6.95,6.95,0,1,1,7-7A6.94,6.94,0,0,1,267.35,482.14Z" transform="translate(-216.72 -400.17)"></path><path class="cls-1" d="M298.72,524.15a6.95,6.95,0,1,1-6.86-7.06A7,7,0,0,1,298.72,524.15Z" transform="translate(-216.72 -400.17)"></path></svg>