<svg xmlns="http://www.w3.org/2000/svg" id="Layer_1" data-name="Layer 1" viewBox="0 0 116.89 124.7"><defs><style>.cls-1{fill:#18649c;}</style></defs><path class="cls-1" d="M307.49,551.38a12.44,12.44,0,0,1-5.8-2.89,10.33,10.33,0,0,1-3.31-8.79,1.4,1.4,0,0,0-.86-1.6q-19.17-11-38.33-22.09a2.06,2.06,0,0,1-1.21-2.08c0-14.8,0-29.61,0-44.41a1.68,1.68,0,0,0-1.15-1.8,10.64,10.64,0,1,1,10.68-18.32,1.5,1.5,0,0,0,1.93.07Q288.9,438.22,308.31,427a1.77,1.77,0,0,1,2.07,0q19.25,11.16,38.5,22.28a1.69,1.69,0,0,0,2.14,0,10.64,10.64,0,1,1,10.76,18.3,1.79,1.79,0,0,0-1.15,1.94q0,22.2,0,44.41a2.06,2.06,0,0,1-1.23,2.08Q340,527.19,320.59,538.41a1.58,1.58,0,0,0-1,1.69A10.63,10.63,0,0,1,311,551.18a4.18,4.18,0,0,0-.56.2ZM316,532.56l.29-.13q18.15-10.47,36.28-21a1.81,1.81,0,0,0,.72-1.32c0-13.67,0-27.33,0-41a1.32,1.32,0,0,0-.86-1.38,10.32,10.32,0,0,1-6.14-10.21,1.86,1.86,0,0,0-1.13-2q-17.49-10.05-34.93-20.16a1.59,1.59,0,0,0-1.86,0Q290.7,445.7,273,455.9a1.53,1.53,0,0,0-.86,1.64,10.39,10.39,0,0,1-5.91,10.11,1.36,1.36,0,0,0-.86,1.4q0,20.55,0,41.1a1.44,1.44,0,0,0,.87,1.42c1.53.84,3,1.73,4.55,2.6Q286,523,301.33,531.83c.38.22,1.07.39,1.36.19C307.25,529.07,311.64,529.41,316,532.56Z" transform="translate(-250.75 -426.69)"></path><path class="cls-1" d="M333.26,467.64l-9.46,5.45L310.19,481a1.51,1.51,0,0,1-1.77.13q-11.37-6.61-22.78-13.18a5,5,0,0,1-.47-.35c.46-.28.85-.54,1.26-.77,7.28-4.2,14.56-8.42,21.87-12.58a2,2,0,0,1,1.61-.13q11.54,6.59,23,13.26A3.48,3.48,0,0,1,333.26,467.64Z" transform="translate(-250.75 -426.69)"></path><path class="cls-1" d="M337,474v1.09q0,12.85,0,25.71a1.4,1.4,0,0,1-.76,1.47c-7.57,4.33-15.12,8.71-22.68,13.07-.16.09-.35.17-.65.31,0-.48-.06-.86-.06-1.24,0-8.45,0-16.9,0-25.35a1.77,1.77,0,0,1,1-1.8c7.3-4.17,14.56-8.38,21.84-12.58C336.09,474.46,336.48,474.27,337,474Z" transform="translate(-250.75 -426.69)"></path><path class="cls-1" d="M281.39,473.92l7.13,4.1q8.07,4.67,16.14,9.31a1.41,1.41,0,0,1,.9,1.39c0,8.73,0,17.47,0,26.21,0,.19,0,.38-.05.7-.4-.2-.72-.34-1-.52q-11.07-6.37-22.13-12.8a1.84,1.84,0,0,1-.91-1.2C281.38,492.13,281.39,483.15,281.39,473.92Z" transform="translate(-250.75 -426.69)"></path></svg>