<svg xmlns="http://www.w3.org/2000/svg" id="Layer_1" data-name="Layer 1" viewBox="0 0 145 145.29"><defs><style>.cls-1{fill:#16659c;}</style></defs><text x="-225" y="-348.36"></text><path class="cls-1" d="M225,481.16v-101a3.85,3.85,0,0,0,.27-.63A14.1,14.1,0,0,1,237.42,368a88.56,88.56,0,0,1,10.44-.25,1.79,1.79,0,0,0,1.87-1.24,30.5,30.5,0,0,1,17.78-16.22c2.36-.85,4.88-1.27,7.33-1.89h6.52a3,3,0,0,0,.65.24,30.69,30.69,0,0,1,18.6,9.27,1.29,1.29,0,0,0,1.58.3c2.87-.86,5.74-2,8.68-2.31,11-1.15,20.19,2.53,27.46,10.89a2.4,2.4,0,0,0,2,.95c4.71,0,9.43,0,14.15,0,5.38,0,8.27,2.91,8.28,8.34s0,11.06,0,16.59a2.74,2.74,0,0,0,.47,1.68,8.36,8.36,0,0,1,1.91,5.62c0,9.17,0,18.34,0,27.51a1.67,1.67,0,0,0,1,1.75,6.91,6.91,0,0,1,3.83,6.46q0,7.17,0,14.32a7,7,0,0,1-3.84,6.46,1.67,1.67,0,0,0-1,1.75q0,13.83,0,27.65a10.66,10.66,0,0,1-.16,2.11c-.63,3-2.77,4.67-5.49,5.72H237.46a2.58,2.58,0,0,0-.51-.23q-9.52-2.07-11.7-11.6A3.64,3.64,0,0,0,225,481.16Zm4.89-21.35c0,.6-.06,1.06-.06,1.52q0,8.52,0,17c0,6.37,4.08,10.45,10.46,10.45H357c2.57,0,3.37-.81,3.37-3.41V457.32c-4.1,0-8,0-11.84,0a18.39,18.39,0,0,1-3.23-.29c-7-1.33-11.85-7.8-11.5-15.35a14.35,14.35,0,0,1,13-13.27c3.9-.25,7.83-.13,11.74-.17.55,0,1.1,0,1.62,0a3,3,0,0,0,.16-.59c0-9.41,0-18.82,0-28.23,0-1.7-1-2.52-2.73-2.56h-1.27q-57.7,0-115.41,0a16.2,16.2,0,0,1-10.41-3.36,1.92,1.92,0,0,0-.57-.24v32.57c5.44,0,10.77.09,16.09-.06a5.45,5.45,0,0,0,3.22-1.52,57.45,57.45,0,0,0,4.13-4.86,9.77,9.77,0,1,1,17.55-4.18,9.66,9.66,0,0,1-12.73,7.69c-.81-.27-1.26-.24-1.78.46-.87,1.17-1.87,2.25-2.79,3.39a10,10,0,0,1-8.37,3.95c-4.62-.06-9.25,0-13.88,0-.49,0-1,0-1.45.06v9.59h1.49c12.79,0,25.58,0,38.37,0a1.74,1.74,0,0,0,2-1.29,9.58,9.58,0,0,1,10.8-5.8,9.71,9.71,0,0,1-.28,19.1,9.54,9.54,0,0,1-10.52-5.84,1.76,1.76,0,0,0-2-1.31q-19.18.06-38.38,0c-.5,0-1,.05-1.47.07v9.42a2.07,2.07,0,0,0,.38.09c4.82,0,9.63.05,14.45,0a10.51,10.51,0,0,1,9,4.18c.75,1,1.63,1.85,2.33,2.85a1.8,1.8,0,0,0,2.43.79,9.72,9.72,0,0,1,12.24,6.5,9.83,9.83,0,1,1-18.82,5.7,10,10,0,0,1,1.42-8.64c-1.25-1.52-2.46-3-3.65-4.43a5.17,5.17,0,0,0-4.32-2c-4.06,0-8.12,0-12.18,0ZM340.6,391.9c.13-1.67.33-3.13.32-4.58a31.42,31.42,0,0,0-.33-4.65c-2.24-14.51-16.79-24.67-31.1-21.76-13.88,2.83-22.81,15.08-21.43,29.25.15,1.44.6,1.77,2,1.77,16.28-.05,32.55,0,48.82,0Zm-43.7-31.06-1.08-.89a26.15,26.15,0,0,0-20.37-6.55,26.54,26.54,0,0,0-21.59,37.12,1.94,1.94,0,0,0,2.07,1.41c8.63-.06,17.26,0,25.89,0,.5,0,1,0,1.48-.07C281.86,378.84,286.35,368.63,296.9,360.84Zm58.17,72.32h0c-2.36,0-4.71,0-7.07,0a9.62,9.62,0,0,0-9.4,9.12c-.34,4.74,3.18,9.48,8,9.89,5.39.44,10.83.26,16.24.25,1.46,0,2.29-1.11,2.3-2.71,0-4.63,0-9.26,0-13.88a2.42,2.42,0,0,0-2.74-2.68C360,433.15,357.52,433.16,355.07,433.16Zm-107.88-60.5c-2.64,0-5.47-.15-8.28,0a9.57,9.57,0,0,0-9.08,9.74,9.88,9.88,0,0,0,9.38,9.4c3.07.14,6.14.05,9.21.05.16,0,.33-.09.24-.06a86.28,86.28,0,0,1-1.76-9.5A87.45,87.45,0,0,1,247.19,372.66Zm95.19,0a32.06,32.06,0,0,1,3.14,19.17H357.7a1.63,1.63,0,0,0,.14-.46c0-5.48,0-11,0-16.44a2.05,2.05,0,0,0-2.09-2.24C351.38,372.61,347,372.65,342.38,372.65Zm-81.1,104a4.83,4.83,0,0,0,4.79-4.75,4.82,4.82,0,1,0-9.64-.08A4.81,4.81,0,0,0,261.28,476.64Zm0-58.14a4.78,4.78,0,1,0-4.83-4.67A4.77,4.77,0,0,0,261.26,418.5Zm24.09,24.35a4.72,4.72,0,0,0-4.64-4.85,4.83,4.83,0,0,0-4.94,4.74,4.9,4.9,0,0,0,4.82,4.89A4.82,4.82,0,0,0,285.35,442.85Z" transform="translate(-225 -348.36)"></path></svg>