<svg xmlns="http://www.w3.org/2000/svg" id="Layer_1" data-name="Layer 1" viewBox="0 0 150.52 119.33"><defs><style>.cls-1{fill:#16659c;}</style></defs><text x="-222.25" y="-362"></text><path class="cls-1" d="M372.76,384.91c-.3,2.91-.63,5.81-.89,8.72q-1,11.64-2,23.27c-.53,6.34-1,12.68-1.57,19-.39,4.69-.71,9.38-1.22,14.05a11.17,11.17,0,0,1-10.79,9.59c-1.61,0-3.22-.14-5.06-.23,0,.76,0,1.52,0,2.28A100.21,100.21,0,0,1,351,472a10.91,10.91,0,0,1-10.86,9.29q-53.36,0-106.7,0A11.2,11.2,0,0,1,222.26,470q0-33.15,0-66.29a11.28,11.28,0,0,1,11.19-11.42c2.78-.06,5.57,0,8.57,0,.27-2.52.55-5,.82-7.44.49-4.52.88-9.06,1.5-13.56.81-5.9,6.53-9.83,13-9.25,9.21.83,18.44,1.55,27.65,2.33,8.83.74,17.66,1.52,26.48,2.26s17.47,1.42,26.2,2.14c8.29.69,16.59,1.33,24.87,2.11a11.15,11.15,0,0,1,10,8.67,5.37,5.37,0,0,0,.29.65Zm-27.43,48.88H228.12v35c0,4.57,2,6.59,6.66,6.59H338.67c4.63,0,6.66-2,6.66-6.58V433.79ZM248,392.29H338.8c7.75,0,12.47,4.7,12.47,12.41v48.6c1.63.15,3,.35,4.45.39a5.42,5.42,0,0,0,5.56-4.64c.17-1.26.22-2.53.33-3.8q.78-9.58,1.58-19.17,1-11.62,1.95-23.26c.54-6.44,1-12.88,1.65-19.31.37-3.81-1.53-6.42-5.35-6.78-6-.55-12-1-18-1.51-8.83-.73-17.66-1.42-26.49-2.16-9.9-.83-19.79-1.71-29.69-2.54-10.39-.88-20.78-1.72-31.17-2.59a5.4,5.4,0,0,0-6,4.79c-.39,3.3-.76,6.61-1.12,9.91S248.37,388.94,248,392.29Zm97.2,23.41h-117v12H345.24Zm-117.11-6.16H345.19c0-2.35.15-4.6,0-6.83a4.92,4.92,0,0,0-4.33-4.33,14.79,14.79,0,0,0-2.2-.15H234.85a15.12,15.12,0,0,0-1.9.1,5.3,5.3,0,0,0-4.8,5.09C228.05,405.42,228.13,407.42,228.13,409.54Z" transform="translate(-222.25 -362)"></path><path class="cls-1" d="M318.78,466.76c-4.4,0-8.81,0-13.21,0-2.79,0-3.79-1-3.8-3.83q0-8.37,0-16.74c0-2.78,1.06-3.85,3.8-3.85h26.72c2.66,0,3.71,1.1,3.71,3.78,0,5.68,0,11.35,0,17,0,2.51-1,3.58-3.56,3.6C327.89,466.78,323.34,466.76,318.78,466.76ZM330,448.44h-22.2v12.27H330Z" transform="translate(-222.25 -362)"></path></svg>