<svg xmlns="http://www.w3.org/2000/svg" id="Layer_1" data-name="Layer 1" viewBox="0 0 207.32 207.32"><defs><style>.cls-1{fill:#16659c;}</style></defs><text x="-194" y="-317.65"></text><path class="cls-1" d="M301.23,490.74c8.6,3,11.06,10.2,10,15.9a13.84,13.84,0,0,1-27.15.48c-1.62-6.93,1.89-12.73,10-16.47V456H280.35v29.92c0,3.41-1.08,4.47-4.53,4.47q-12,0-24,0h-2.46v7.2c7.94,3.64,11.51,9.42,10,16.22a13.85,13.85,0,0,1-27.22-.27c-1-5.7,1.39-12.88,10.19-16V488c0-3.46,1.06-4.53,4.46-4.53H273.3V456h-6.77v16c0,3.58-1,4.61-4.6,4.61H221.41c-3.69,8-9.35,11.57-16.08,10.2A13.8,13.8,0,0,1,194,473.64a13.66,13.66,0,0,1,10.77-14q10.46-2.51,16.66,10H259.5V456.07c-6.72-1.26-10.19-4.89-10.22-10.72,0-2.59,0-5.18,0-7.77v-2.45c-1,0-1.91,0-2.81,0-6.46-.27-13,.15-19.34-1-17.23-3.05-30.41-17.44-32.74-34.81a41.23,41.23,0,0,1,41.33-47c2.94,0,4.44-.78,6-3.31,11.33-18,27.65-28.46,48.83-30.92a65.55,65.55,0,0,1,70,46.44c.18.61.38,1.21.59,1.89a34.62,34.62,0,0,1,39.36,41.15c-3.25,14.6-14.29,25.05-28.82,27.17a44.73,44.73,0,0,1-6.23.38c-6.4.05-12.8,0-19.5,0,0,3-.2,6,0,8.86.47,5.69-2.88,11.25-10.31,12v13.67h2c11.44,0,22.88,0,34.32,0a2.32,2.32,0,0,0,2.59-1.81A13.82,13.82,0,1,1,390,486.77a14,14,0,0,1-15.38-8.44c-.22-.53-.41-1.07-.67-1.75h-2.55q-16.08,0-32.16,0c-11.52,0-10.51,1-10.49-10.61V456H322v27.53h26.61c3.16,0,4.29,1.13,4.31,4.26,0,2.66.1,5.33,0,8-.08,1.48.45,2.05,1.8,2.59a13.82,13.82,0,0,1-.38,25.75,13.83,13.83,0,0,1-10.8-25.44c.78-.37,1.59-.67,2.45-1V490.4h-2.25q-12.19,0-24.4,0c-3.27,0-4.36-1.1-4.37-4.41V456H301.23Zm42.2-65.65c.94,1,1.94,3,3,3,8,.15,16,.49,23.92-.32,15.64-1.61,26.27-16.48,23.57-32.09a27.62,27.62,0,0,0-33.11-22c-3.89.88-5.15.07-6.08-3.89-6.09-25.92-29.06-44.89-55.71-45.08-23.83-.17-41.71,10.62-53.39,31.47-1.89,3.39-2.41,3.59-6.31,3.34a43.77,43.77,0,0,0-9.44.15c-15.91,2.41-28,16.1-28.93,32.44-.88,15.81,10,30.7,25.42,34.87,6.37,1.72,12.86,1,19.3,1.32,2.78.14,4.9-.26,5.88-3.15l.12-.4H251a47.13,47.13,0,0,1,.3-28.27c-1.56-1.82-2.14-4.47-2.07-7.39.09-4.17,0-8.34,0-12.52a10.2,10.2,0,0,1,10.48-10.5q37.89,0,75.77,0A10.21,10.21,0,0,1,346,376.6c0,3.74-.08,7.48,0,11.22.1,3.38-.18,6.61-2.5,9.2C347.05,402.8,347.05,418.81,343.43,425.09Zm-45.8-52.15q-18.56,0-37.1,0c-3,0-4.34,1.29-4.36,4.32q0,6,0,12.08c0,3,1.31,4.33,4.36,4.33h74.2c3,0,4.34-1.3,4.36-4.33,0-3.88,0-7.76,0-11.64,0-3.6-1.18-4.76-4.79-4.76Zm0,48.38h37.1c3.06,0,4.36-1.29,4.39-4.3,0-4,0-8,0-12.08,0-3-1.31-4.35-4.33-4.35h-74.2c-3.14,0-4.37,1.3-4.39,4.51,0,3.74,0,7.48,0,11.21,0,3.91,1.09,5,5,5Zm.06,27.64q18.43,0,36.88,0c3.3,0,4.54-1.26,4.55-4.58q0-5.82,0-11.64c0-3.22-1.26-4.51-4.39-4.52q-37.09,0-74.2,0c-3,0-4.31,1.3-4.33,4.35,0,3.88,0,7.76,0,11.65,0,3.57,1.18,4.73,4.82,4.73Q279.32,449,297.66,449Zm-89.8,17.28a6.9,6.9,0,1,0,6.85,6.95A7.07,7.07,0,0,0,207.86,466.24Zm186.49,6.83a6.9,6.9,0,1,0-6.83,7A7.07,7.07,0,0,0,394.35,473.07Zm-89.82,31.12a6.9,6.9,0,1,0-6.86,6.93A7.08,7.08,0,0,0,304.53,504.19Zm-51.82,6.89a6.9,6.9,0,1,0-6.85,6.95A7.08,7.08,0,0,0,252.71,511.08ZM349.28,518a6.9,6.9,0,1,0-6.73-7.07A7.07,7.07,0,0,0,349.28,518Z" transform="translate(-194 -317.65)"></path><path class="cls-1" d="M263.2,386.62V380h41.16v6.65Z" transform="translate(-194 -317.65)"></path><path class="cls-1" d="M311.64,379.92h6.55v6.7h-6.55Z" transform="translate(-194 -317.65)"></path><path class="cls-1" d="M325.39,380H332v6.67h-6.63Z" transform="translate(-194 -317.65)"></path><path class="cls-1" d="M304.43,407.66v6.63H263.19v-6.63Z" transform="translate(-194 -317.65)"></path><path class="cls-1" d="M318.26,407.66v6.62h-6.63v-6.62Z" transform="translate(-194 -317.65)"></path><path class="cls-1" d="M325.32,414.22v-6.55H332v6.55Z" transform="translate(-194 -317.65)"></path><path class="cls-1" d="M304.42,435.29v6.64H263.26v-6.64Z" transform="translate(-194 -317.65)"></path><path class="cls-1" d="M311.55,441.88v-6.62h6.63v6.62Z" transform="translate(-194 -317.65)"></path><path class="cls-1" d="M332.06,442h-6.64v-6.68h6.64Z" transform="translate(-194 -317.65)"></path></svg>