<svg xmlns="http://www.w3.org/2000/svg" id="Layer_1" data-name="Layer 1" viewBox="0 0 129.1 118.32"><defs><style>.cls-1{fill:#16659c;}</style></defs><text x="-233.66" y="-361.46"></text><path class="cls-1" d="M314.87,450.24c-7.61,2.24-11.31-.16-12.63-8.06-3.7-.81-6.22-3-6.69-6.85a8.6,8.6,0,0,1,.85-4.68,17.78,17.78,0,0,1,3.64-4.49,1.91,1.91,0,0,0,.67-2.27q-6-21.86-12-43.71c-1.27-4.64.86-8.25,5.52-9.52,10.61-2.89,21.25-5.68,31.8-8.77,4.55-1.33,9,.43,10.45,6,4.17,15.89,8.62,31.7,13,47.53a2.81,2.81,0,0,0,1,1.5,68,68,0,0,0,6.89,4.34c5,2.54,6.35,8.92,4.8,13-2.83,7.35-5.43,14.78-8,22.2a24.88,24.88,0,0,0-1,12.61,2.79,2.79,0,0,1-.47,2,22.8,22.8,0,0,1-4.15,4.23,26.77,26.77,0,0,1-29.15.3,16.72,16.72,0,0,1-3.28-3,2.1,2.1,0,0,1,0-3,4.33,4.33,0,0,0,.27-5.48C313.88,460,312.78,455.74,314.87,450.24Zm18.36-23.18a.48.48,0,0,0,.18,0l10.22-2.77c2.43-.67,3.09-1.88,2.4-4.39l-14-51.17c-.75-2.73-1.89-3.37-4.61-2.63l-31.8,8.72c-2.65.73-3.3,1.84-2.58,4.5q3.74,13.74,7.49,27.49,3.33,12.18,6.69,24.34c.47,1.7,1.26,2.44,2.75,2.19,1.95-.33,3.85-.9,5.8-1.37-.1-.38-.13-.55-.19-.72-1.21-3.46-2.52-6.88-3.64-10.37-1.79-5.59,3.14-9.13,7.22-8.59a14.24,14.24,0,0,1,10.6,7.28A72.68,72.68,0,0,1,333.23,427.06Zm-12.62,44.13a38.3,38.3,0,0,0,3.62,2.13,23.46,23.46,0,0,0,14,1.61,17.1,17.1,0,0,0,9.7-4.8,3.29,3.29,0,0,0,.68-2c.16-3-.23-6.05.41-8.91a113.87,113.87,0,0,1,3.95-12.67c1.65-4.74,3.5-9.41,5.19-14.14a5.37,5.37,0,0,0-1.42-6.12,43.9,43.9,0,0,0-6-3.72c-.5,2.17-1.44,3.87-3.2,4.8a50.42,50.42,0,0,1-5.37,2.08c1.05.64,1.66,1.93,3.33,1.51a2.35,2.35,0,0,1,1.94,1.06,2.57,2.57,0,0,1-.11,2.23,21.34,21.34,0,0,1-2.94,3.37c-1.12,1.07-2.39,2-3.66,3.06a4.84,4.84,0,0,0,.77.48,16.43,16.43,0,0,1,2.65,1,3.52,3.52,0,0,1,1.55,1.81,2.17,2.17,0,0,1-.78,1.94,3.49,3.49,0,0,1-2.54.25,16.82,16.82,0,0,1-11.62-11.56c-1.15-3.62-2.31-7.24-3.61-10.8a11.45,11.45,0,0,0-5.87-6.34,7.19,7.19,0,0,0-3-.73,2,2,0,0,0-2.06,2.83c.52,1.68,1.13,3.34,1.8,5,3.82,9.32,4.8,18.69.78,28.26a7.47,7.47,0,0,0-.33,4.36,28.17,28.17,0,0,0,2.4,6,7.41,7.41,0,0,1,.76,4.73A25.94,25.94,0,0,1,320.61,471.19Zm-3.8-35.07a21.52,21.52,0,0,0-3.72,1.38c-1.95,1.19-3.78,2.58-5.64,3.91-.27.19-.62.47-.66.74-.27,1.94,1.52,5.34,4.2,4.52a30.37,30.37,0,0,0,5.38-2.69,1.19,1.19,0,0,0,.42-.94C316.83,440.84,316.81,438.63,316.81,436.12Zm20.11,1.76,4.43-3.36a24.39,24.39,0,0,1-2.92-2.49c-1.26-1.49-2.56-1.35-4.22-.38ZM302.37,430c-2.53,2.24-3.15,4.5-1.9,6.34,1.14,1.67,3.47,2,5.88.64C303.72,435.4,303,432.75,302.37,430Z" transform="translate(-233.66 -361.46)"></path><path class="cls-1" d="M295.75,454.25c2-.17,5-.39,8-.68,1.59-.15,2.78.53,3,1.85a2.3,2.3,0,0,1-2.34,2.59,93.52,93.52,0,0,1-22.8-.14,68.54,68.54,0,0,1-26.12-9c-7.88-4.77-14.44-10.88-18.36-19.36-5.78-12.52-4.09-24.39,4-35.35,7.06-9.59,16.83-15.42,28-19,3.91-1.26,8-2,12-3a5.59,5.59,0,0,1,1.08-.13,2.22,2.22,0,0,1,2.55,1.88,2.3,2.3,0,0,1-2,2.5c-2.62.55-5.25,1-7.84,1.67-10.06,2.54-19.15,6.92-26.56,14.35a33.14,33.14,0,0,0-9.59,17.34c-1.57,8.29.41,15.84,5.15,22.69,5.33,7.7,12.73,12.79,21.23,16.41C274.53,452.88,284.49,454.42,295.75,454.25Z" transform="translate(-233.66 -361.46)"></path><path class="cls-1" d="M285.74,415a50.93,50.93,0,0,1-5.55,22.48c-.68,1.38-1.82,1.85-3,1.3s-1.61-1.79-.91-3.24a50.47,50.47,0,0,0,4.63-14.7A42.59,42.59,0,0,0,278.15,399c-.59-1.52-1.31-3-1.95-4.48a2.18,2.18,0,0,1,1-3.11,2.16,2.16,0,0,1,3,1.25A50.83,50.83,0,0,1,285.74,415Z" transform="translate(-233.66 -361.46)"></path><path class="cls-1" d="M275.68,414.38a41.79,41.79,0,0,1-4.89,19.12,2.1,2.1,0,0,1-2.94,1.13c-1.16-.55-1.48-1.73-1-3.12a93.11,93.11,0,0,0,3.6-10.21c1.77-7.29.29-14.28-2.8-21-.3-.66-.67-1.29-.91-2a2.14,2.14,0,0,1,1.13-2.84,2.07,2.07,0,0,1,2.8.95,43.07,43.07,0,0,1,4.7,14.65C275.55,412.4,275.62,413.71,275.68,414.38Z" transform="translate(-233.66 -361.46)"></path><path class="cls-1" d="M265.6,414.54a30.57,30.57,0,0,1-4.16,14.93,2.2,2.2,0,0,1-3,1,2.29,2.29,0,0,1-.85-3.06,62.7,62.7,0,0,0,3.09-8.21c1.29-5.35,0-10.42-2.46-15.23-.22-.44-.49-.87-.69-1.33a2.21,2.21,0,0,1,.92-2.92,2.15,2.15,0,0,1,2.94.86,31.4,31.4,0,0,1,3.95,11.06C265.48,412.73,265.53,413.87,265.6,414.54Z" transform="translate(-233.66 -361.46)"></path><path class="cls-1" d="M255.79,415a18.53,18.53,0,0,1-2.43,9c-.83,1.42-2.12,1.88-3.27,1.18s-1.34-1.86-.57-3.31a13.69,13.69,0,0,0,.08-13.49c-.79-1.51-.55-2.73.64-3.4s2.35-.24,3.21,1.28A18.45,18.45,0,0,1,255.79,415Z" transform="translate(-233.66 -361.46)"></path><path class="cls-1" d="M326.06,391.91A2,2,0,0,1,324.5,394q-5.42,1.55-10.87,3a2.1,2.1,0,0,1-2.64-1.56q-1.87-6.6-3.62-13.22a2.15,2.15,0,0,1,1.66-2.71c3.53-1,7.07-1.94,10.61-2.9a2,2,0,0,1,2.63,1.28c1.33,4.51,2.54,9.06,3.78,13.59A1.4,1.4,0,0,1,326.06,391.91Zm-13.84-8.68c.84,3.09,1.63,6,2.44,8.93l6.49-1.79-2.45-8.94Z" transform="translate(-233.66 -361.46)"></path></svg>