<svg xmlns="http://www.w3.org/2000/svg" id="Layer_1" data-name="Layer 1" viewBox="0 0 120.81 148.07"><defs><style>.cls-1{fill:#18649c;}</style></defs><path class="cls-1" d="M455.19,476.19c-1.66-1-3.08-1.86-4.4-2.8a1.82,1.82,0,0,1-.51-1.29c-.07-1.33,0-2.65,0-4.05h-69V571.5h68.93l.12-2.28h4.81c0,.49.06,1,.07,1.47,0,5.86,0,11.72,0,17.58,0,4.92-3.08,8-8,8H384.14c-4.81,0-7.93-3.11-7.93-7.9V456.08c0-4.72,3.12-7.85,7.82-7.85h63.39a7.38,7.38,0,0,1,7.76,7.75C455.2,462.6,455.19,469.23,455.19,476.19ZM415.54,586.42c2.37,0,4.73,0,7.1,0,1.81,0,2.92-1,2.92-2.46s-1.11-2.46-2.92-2.46q-6.94,0-13.88,0c-1.83,0-2.92,1-2.92,2.46s1.1,2.45,2.92,2.46C411,586.43,413.28,586.42,415.54,586.42Z" transform="translate(-376.21 -448.22)"></path><path class="cls-1" d="M447.62,512.47H400.9a2.4,2.4,0,0,1-2.51-1.87,2.35,2.35,0,0,1,1.2-2.75l9-5.69C420,494.91,431.51,487.7,443,480.42a8,8,0,0,1,9.36-.05q21.39,13.58,42.85,27.07c1.21.77,2.21,1.64,1.75,3.22s-1.72,1.82-3.18,1.82Q470.68,512.45,447.62,512.47Zm1.41-8.75-.27-.43a5.45,5.45,0,0,0,4.66-3.09,4.19,4.19,0,0,0-2.33-5.95c-1.19-.45-2.52-.53-3.69-1-.64-.27-1.06-1.05-1.58-1.6.58-.4,1.11-1,1.75-1.15a2.57,2.57,0,0,1,2.89,1.53,2.41,2.41,0,0,0,1.55,1.16c1.16.11,1.81-1.14,1.33-2.31-.84-2.07-2.58-2.93-4.67-3.31l.31-.35-1.37-1.37-1.2,1.61a7.42,7.42,0,0,1-1.74,1,4.3,4.3,0,0,0-.16,7.64,13.07,13.07,0,0,0,2.74,1,15.16,15.16,0,0,1,2.05.6c.4.2.91.71.9,1.07a2,2,0,0,1-.79,1.35,3.09,3.09,0,0,1-4.54-1.61c-.47-1.2-1.21-1.89-2.46-1.34s-1.08,1.59-.68,2.64a5.4,5.4,0,0,0,4.36,3.48l1.57,2.22Z" transform="translate(-376.21 -448.22)"></path><path class="cls-1" d="M445.72,552.69q19,0,37.93,0c4.54,0,7.55,4,6.18,8.12a6.2,6.2,0,0,1-5.4,4.19c-.51,0-1,0-1.54,0H408.58a11.71,11.71,0,0,1-2.3-.13,6.16,6.16,0,0,1,1.36-12.2Q426.67,552.67,445.72,552.69Z" transform="translate(-376.21 -448.22)"></path><path class="cls-1" d="M413.78,547.65v-31.9H428.4v31.9Z" transform="translate(-376.21 -448.22)"></path><path class="cls-1" d="M433.55,515.71h14.58v31.93H433.55Z" transform="translate(-376.21 -448.22)"></path><path class="cls-1" d="M467.9,547.69H453.27V515.8H467.9Z" transform="translate(-376.21 -448.22)"></path><path class="cls-1" d="M487.66,547.72h-14.6V515.78h14.6Z" transform="translate(-376.21 -448.22)"></path></svg>