<svg xmlns="http://www.w3.org/2000/svg" id="Layer_1" data-name="Layer 1" viewBox="0 0 114 114"><defs><style>.cls-1{fill:#18649c;stroke:#18649c;stroke-miterlimit:10;}</style></defs><path class="cls-1" d="M316.73,390.61l5.9-10,.58-1c.9-1.48,1.7-1.69,3.2-.81q7.47,4.36,14.92,8.76c2.06,1.21,4.12,2.41,6.17,3.63,1.47.87,1.69,1.73.84,3.21-.52.91-1,1.82-1.69,2.92h1.68A5.45,5.45,0,0,1,354,403q0,13.15,0,26.3V455c0,3.87-2.21,6.06-6.08,6.06H310.26v6.57c0,6-3.81,9.83-9.8,9.83H250.8c-6,0-9.8-3.82-9.8-9.83V374.29c0-6,3.82-9.79,9.73-9.79H300.5c5.93,0,9.93,3.84,9.69,9.76a15.13,15.13,0,0,0,2.75,10C314.36,386.21,315.43,388.4,316.73,390.61Zm-52-22.46H250.46a5.47,5.47,0,0,0-5.81,5.87q0,47,0,94c0,3.62,2.28,5.87,5.92,5.87h50.34c2.89,0,5.29-1.77,5.56-4.52s.06-5.43.06-8.23h-1.28c-4.93,0-9.87,0-14.81,0a9.09,9.09,0,0,1-9.34-9.36q0-22.56,0-45.11a8.86,8.86,0,0,1,5.32-8.45c.2-.09.4-.2.69-.35l-1.79-3.07c-1.14-2-1-2.61.95-3.75,6.48-3.81,12.94-7.63,19.43-11.4a1.53,1.53,0,0,0,.92-1.6c-.06-1.33,0-2.66,0-4,0-3.57-2.27-5.85-5.82-5.86H286.56c0,.77,0,1.38,0,2a5.39,5.39,0,0,1-5.23,5.28c-3.8.07-7.59.07-11.39,0a5.4,5.4,0,0,1-5.23-5.28C264.68,369.52,264.7,368.92,264.7,368.15Zm20.1,45.56c0,.34-.06.49-.06.63q0,18.86,0,37.69a5.43,5.43,0,0,0,5.69,5.42h57.61c1.65,0,2.29-.64,2.3-2.26,0-2.35,0-4.71,0-7.06v-3.3a1.52,1.52,0,0,0-.25-.11c-3.6,0-7.21,0-10.81,0a7.24,7.24,0,0,1-7.15-7.11c0-1.22,0-2.43,0-3.65a7.27,7.27,0,0,1,7.51-7.45c3.15,0,6.3,0,9.45,0h1.17V415.53H348.8q-28.57,0-57.16,0A10.92,10.92,0,0,1,284.8,413.71Zm23.66-1.82c1.16,0,2.08-.06,3,0a1.74,1.74,0,0,0,1.87-1c3.81-6.56,7.67-13.09,11.52-19.63a4.83,4.83,0,0,1,5.79-1.52c1.77,1,3.54,2.07,5.29,3.12a4.75,4.75,0,0,1,1.47,5.8q-3.56,6.09-7.14,12.17c-.18.31-.34.64-.58,1.08,1.15,0,2.13-.06,3.11,0a1.5,1.5,0,0,0,1.6-.9c3.2-5.51,6.44-11,9.67-16.49.15-.25.28-.52.46-.86l-18.82-11.06Zm-.68-29.29-18.84,11.08c3.52,6,7,11.88,10.44,17.75a1,1,0,0,0,.69.44c1.2,0,2.39,0,3.75,0-.31-.56-.52-1-.74-1.34l-6.92-11.77a4.71,4.71,0,0,1,1.63-6.09l5-2.93a4.75,4.75,0,0,1,5.87,1.53l3.84,6.51c.71-1.2,1.36-2.26,1.95-3.34a.93.93,0,0,0-.12-.71C312.19,390.08,310,386.42,307.78,382.6Zm9.2,29.29c2.71,0,5.22,0,7.71,0a1.6,1.6,0,0,0,1.09-.71c2.68-4.49,5.32-9,8-13.51.63-1.08.51-1.53-.6-2.19s-2.22-1.31-3.33-2c-1.29-.76-1.7-.66-2.45.61l-9.78,16.65C317.4,411.06,317.24,411.39,317,411.89Zm33.32,18.24c-3.8,0-7.52-.06-11.23,0a3.49,3.49,0,0,0-3.28,3.47c-.05,1.28-.05,2.58,0,3.87a3.63,3.63,0,0,0,3.58,3.55c1,0,2,0,3,0h8Zm.05-18.3c0-3,0-6,0-8.87a1.81,1.81,0,0,0-2-2c-1,0-2.05,0-3.07,0a1.18,1.18,0,0,0-1.25.71c-1.45,2.53-2.94,5-4.42,7.55-.49.83-1,1.68-1.53,2.63Zm-44.19-3.23c1.38-2.35,2.65-4.46,3.85-6.61a1.42,1.42,0,0,0,0-1.21c-1.32-2.35-2.71-4.66-4.07-7a1.26,1.26,0,0,0-2-.49c-1.24.75-2.48,1.48-3.73,2.19a1.31,1.31,0,0,0-.54,2.07c1.63,2.73,3.24,5.49,4.86,8.23Zm-10.76,3.27c-2.09-3.54-4.07-6.89-6-10.25-.36-.63-.76-.44-1.24-.25a5.51,5.51,0,0,0-3.34,5.76,5.45,5.45,0,0,0,5.05,4.73C291.62,411.94,293.4,411.87,295.4,411.87Zm-12.49-43.65H268.34c0,.64,0,1.2,0,1.76a1.76,1.76,0,0,0,1.82,1.8q5.44,0,10.91,0a1.77,1.77,0,0,0,1.83-1.79C282.94,369.43,282.91,368.86,282.91,368.22Z" transform="translate(-240.5 -364)"></path><path class="cls-1" d="M266.52,470.14v-3.48h18.14v3.48Z" transform="translate(-240.5 -364)"></path><path class="cls-1" d="M343,439.22a3.64,3.64,0,1,1,3.66-3.59A3.67,3.67,0,0,1,343,439.22Z" transform="translate(-240.5 -364)"></path></svg>