<svg xmlns="http://www.w3.org/2000/svg" id="Layer_1" data-name="Layer 1" viewBox="0 0 207.92 232.34"><defs><style>.cls-1{fill:#ffcb00;}</style></defs><path class="cls-1" d="M294.38,537.34c-4.09-1.05-8.14-2.19-11.56-4.87-7.87-6.16-11.23-14.16-9.87-24.1.16-1.19.42-2.19-1-3-12-6.8-23.84-13.71-35.88-20.65-6.89,6.16-14.88,8.46-23.91,6.13a23.94,23.94,0,0,1-15.65-12.51c-6.83-12.95-1.3-30.19,15.21-35.68v-43c-8.8-3.05-14.92-8.85-17.29-18.09A24,24,0,0,1,197.63,362c7.75-12.18,25.6-16,38.44-4.44L256.19,346c5.11-2.94,10.19-5.93,15.34-8.79a2.51,2.51,0,0,0,1.48-3A24.92,24.92,0,0,1,299,305c14.47.7,25.58,14.39,23.15,28.65-.31,1.86.15,2.77,1.8,3.7,11.69,6.65,23.31,13.42,35.11,20.24,7.16-6.38,15.44-8.62,24.75-5.89a24,24,0,0,1,15.09,12.85c6.36,12.69.83,29.71-15.48,35.07v43c10.73,3.92,17.27,11.28,17.94,22.77.6,10.36-4,18.47-13.15,23.29-10.37,5.45-20.16,3.58-29.18-4L349,490.56c-8.44,4.87-16.87,9.76-25.34,14.58a2.51,2.51,0,0,0-1.53,3c2.16,14.12-6.47,26.15-20.56,28.82a3.83,3.83,0,0,0-.8.37ZM251,440.19c2.36,4.08,4.57,7.89,6.82,11.76-4.47,2.59-8.87,5.22-13.37,7.69-1.3.72-1.48,1.47-1.38,2.85a61,61,0,0,1,0,8.55,2.51,2.51,0,0,0,1.4,2.85q17.11,9.78,34.14,19.72c1.21.7,1.86.45,2.94-.3A43.48,43.48,0,0,1,289,489a2.48,2.48,0,0,0,1.82-2.79c-.08-5.12,0-10.25,0-15.32h13.61c0,5.21.05,10.42,0,15.62,0,1.35.47,1.84,1.68,2.43a63.54,63.54,0,0,1,7.77,4.54,2,2,0,0,0,2.58.19q17.24-10,34.54-19.93c1.15-.65,1.22-1.36,1.14-2.54a47.2,47.2,0,0,1,0-8.32,3,3,0,0,0-1.78-3.53c-4.41-2.41-8.72-5-12.93-7.42l6.82-11.76,14.55,8.39,11-6.36v-42.1l-10.94-6.36-14.59,8.38-6.81-11.75c4.54-2.62,9-5.24,13.57-7.82a2,2,0,0,0,1.23-2.28,78.57,78.57,0,0,1,0-9.46,2.07,2.07,0,0,0-1.26-2.27q-17.18-9.87-34.33-19.84c-1.21-.7-1.86-.44-2.94.31a44.74,44.74,0,0,1-7.4,4.28,2.5,2.5,0,0,0-1.83,2.79c.08,5.13,0,10.26,0,15.33H290.75c0-5.19,0-10.39,0-15.6,0-1.33-.42-1.86-1.66-2.44a53.23,53.23,0,0,1-7.6-4.4,2.26,2.26,0,0,0-2.94-.23q-17,9.92-34.15,19.71c-1.29.73-1.44,1.52-1.33,2.88a42.05,42.05,0,0,1,0,8.09A3,3,0,0,0,244.9,383c4.41,2.4,8.72,5,12.93,7.42L251,402.13l-14.56-8.38-11,6.36v42.1l11,6.36Z" transform="translate(-193.57 -305)"></path><path class="cls-1" d="M297.57,384.84a36.32,36.32,0,1,0,36.3,36.39A36.3,36.3,0,0,0,297.57,384.84Z" transform="translate(-193.57 -305)"></path><path class="cls-1" d="M297.57,384.84A36.32,36.32,0,1,1,261.24,421,36.29,36.29,0,0,1,297.57,384.84Z" transform="translate(-193.57 -305)"></path></svg>