<svg xmlns="http://www.w3.org/2000/svg" width="80" height="34" viewBox="0 0 80 34" fill="none"><path fill-rule="evenodd" clip-rule="evenodd" d="M79.3058 17.8169C79.3058 12.1774 76.5741 7.72745 71.3532 7.72745C66.1102 7.72745 62.938 12.1774 62.938 17.7728C62.938 24.4037 66.6829 27.7521 72.0581 27.7521C74.6796 27.7521 76.6622 27.1573 78.1602 26.3202V21.9143C76.6622 22.6633 74.9439 23.126 72.763 23.126C70.6262 23.126 68.7317 22.377 68.4893 19.7775H79.2617C79.2617 19.4911 79.3058 18.3456 79.3058 17.8169ZM68.4233 15.7241C68.4233 13.2348 69.9433 12.1994 71.3311 12.1994C72.6749 12.1994 74.1068 13.2348 74.1068 15.7241H68.4233Z" fill="#635BFF"></path><path fill-rule="evenodd" clip-rule="evenodd" d="M54.4345 7.72743C52.2756 7.72743 50.8877 8.74078 50.1167 9.44572L49.8303 8.0799H44.9839V33.7661L50.4912 32.5986L50.5132 26.3643C51.3063 26.937 52.4739 27.7521 54.4124 27.7521C58.3557 27.7521 61.9465 24.5799 61.9465 17.5966C61.9244 11.2081 58.2896 7.72743 54.4345 7.72743ZM53.1127 22.9056C51.813 22.9056 51.0419 22.443 50.5132 21.8703L50.4912 13.6974C51.064 13.0585 51.857 12.6179 53.1127 12.6179C55.1174 12.6179 56.5052 14.8649 56.5052 17.7508C56.5052 20.7027 55.1394 22.9056 53.1127 22.9056Z" fill="#635BFF"></path><path fill-rule="evenodd" clip-rule="evenodd" d="M37.4057 6.42766L42.935 5.23807V0.766113L37.4057 1.93367V6.42766Z" fill="#635BFF"></path><path d="M42.935 8.1019H37.4057V27.3776H42.935V8.1019Z" fill="#635BFF"></path><path fill-rule="evenodd" clip-rule="evenodd" d="M31.4795 9.73206L31.1271 8.10189H26.3687V27.3776H31.8761V14.3142C33.1758 12.6179 35.3787 12.9263 36.0616 13.1686V8.10189C35.3567 7.83754 32.7793 7.35289 31.4795 9.73206Z" fill="#635BFF"></path><path fill-rule="evenodd" clip-rule="evenodd" d="M20.465 3.32149L15.0899 4.46702L15.0679 22.1125C15.0679 25.3729 17.5131 27.7741 20.7735 27.7741C22.5799 27.7741 23.9016 27.4436 24.6286 27.0471V22.5751C23.9237 22.8615 20.443 23.8749 20.443 20.6145V12.7941H24.6286V8.10186H20.443L20.465 3.32149Z" fill="#635BFF"></path><path fill-rule="evenodd" clip-rule="evenodd" d="M5.57342 13.6974C5.57342 12.8383 6.27836 12.5078 7.44592 12.5078C9.12015 12.5078 11.235 13.0145 12.9092 13.9177V8.7408C11.0808 8.01383 9.27435 7.72745 7.44592 7.72745C2.97396 7.72745 0 10.0626 0 13.9618C0 20.0418 8.37115 19.0726 8.37115 21.694C8.37115 22.7074 7.48998 23.0378 6.25633 23.0378C4.4279 23.0378 2.09279 22.2888 0.242322 21.2755V26.5185C2.29105 27.3996 4.36181 27.7742 6.25633 27.7742C10.8384 27.7742 13.9886 25.5051 13.9886 21.5619C13.9666 14.9971 5.57342 16.1647 5.57342 13.6974Z" fill="#635BFF"></path></svg>